<?xml version="1.0" encoding="utf-8"?>
<!-- Generator: Adobe Illustrator 15.1.0, SVG Export Plug-In . SVG Version: 6.00 Build 0)  -->
<!DOCTYPE svg PUBLIC "-//W3C//DTD SVG 1.1//EN" "http://www.w3.org/Graphics/SVG/1.1/DTD/svg11.dtd">
<svg version="1.1" xmlns="http://www.w3.org/2000/svg" xmlns:xlink="http://www.w3.org/1999/xlink" x="0px" y="0px" width="1000px"
	 height="1000px" viewBox="0 0 1000 1000" style="enable-background:new 0 0 1000 1000;" xml:space="preserve">
<g id="_xFF11_背景">
	<path style="fill:#59443D;" d="M509.33,22.37c8.72,0,16.01,6.09,17.87,14.25c2.53-7.11,9.3-12.22,17.27-12.22
		c9.2,0,16.8,6.78,18.12,15.61c2.86-6.43,9.28-10.91,16.77-10.91c9.67,0,17.58,7.49,18.28,16.98c3.1-5.73,9.17-9.62,16.14-9.62
		c10.13,0,18.35,8.21,18.35,18.35c0,0.02,0,0.03,0,0.05c3.27-5.05,8.94-8.4,15.4-8.4c10.13,0,18.35,8.21,18.35,18.35
		c0,0.51-0.04,1-0.08,1.5c3.35-4.41,8.64-7.27,14.61-7.27c10.13,0,18.35,8.21,18.35,18.35c0,0.99-0.1,1.96-0.25,2.9
		c3.36-3.79,8.25-6.19,13.71-6.19c10.13,0,18.35,8.21,18.35,18.35c0,1.47-0.19,2.89-0.52,4.27c3.3-3.19,7.78-5.15,12.73-5.15
		c10.13,0,18.35,8.21,18.35,18.35c0,1.95-0.31,3.82-0.87,5.58c3.17-2.61,7.23-4.17,11.65-4.17c10.13,0,18.34,8.21,18.34,18.35
		c0,2.45-0.49,4.78-1.36,6.92c2.99-2.1,6.62-3.35,10.55-3.35c10.13,0,18.35,8.21,18.35,18.35c0,2.96-0.71,5.74-1.96,8.21
		c2.75-1.65,5.96-2.61,9.4-2.61c10.13,0,18.35,8.21,18.35,18.35c0,3.46-0.97,6.68-2.63,9.44c2.46-1.23,5.23-1.94,8.18-1.94
		c10.13,0,18.35,8.21,18.35,18.35c0,3.95-1.26,7.59-3.38,10.59c2.13-0.86,4.45-1.35,6.88-1.35c10.13,0,18.35,8.21,18.35,18.35
		c0,4.44-1.58,8.51-4.2,11.68c1.75-0.55,3.61-0.85,5.53-0.85c10.13,0,18.35,8.21,18.35,18.35c0,4.96-1.98,9.45-5.18,12.76
		c1.36-0.32,2.76-0.51,4.22-0.51c10.13,0,18.35,8.21,18.35,18.35c0,5.48-2.41,10.38-6.22,13.74c0.94-0.15,1.89-0.25,2.86-0.25
		c10.13,0,18.35,8.21,18.35,18.35c0,5.98-2.88,11.28-7.31,14.63c0.48-0.04,0.97-0.07,1.46-0.07c10.14,0,18.35,8.21,18.35,18.35
		c0,6.48-3.36,12.16-8.43,15.43c0,0,0.01,0,0.01,0c10.13,0,18.35,8.21,18.35,18.35c0,6.99-3.91,13.06-9.66,16.16
		c9.48,0.72,16.95,8.62,16.95,18.28c0,7.5-4.5,13.94-10.95,16.78c8.81,1.34,15.57,8.93,15.57,18.12c0,7.99-5.12,14.77-12.25,17.29
		c8.13,1.88,14.2,9.15,14.2,17.86c0,8.47-5.74,15.58-13.54,17.69c7.44,2.34,12.84,9.29,12.84,17.51c0,8.95-6.42,16.4-14.9,18.01
		c6.76,2.71,11.54,9.3,11.54,17.03c0,9.44-7.13,17.21-16.3,18.23c6.08,2.99,10.26,9.22,10.26,16.45c0,9.92-7.88,17.99-17.73,18.32
		c5.41,3.19,9.04,9.06,9.04,15.79c0,10.13-8.21,18.35-18.35,18.35c-0.27,0-0.53-0.03-0.79-0.04c4.74,3.32,7.84,8.8,7.84,15.03
		c0,10.13-8.21,18.35-18.35,18.35c-0.73,0-1.45-0.05-2.15-0.14c4.08,3.36,6.67,8.46,6.67,14.16c0,10.13-8.21,18.35-18.35,18.35
		c-1.22,0-2.41-0.12-3.56-0.35c3.46,3.34,5.63,8.02,5.63,13.21c0,10.13-8.22,18.34-18.35,18.34c-1.72,0-3.38-0.25-4.96-0.69
		c2.9,3.25,4.68,7.51,4.68,12.21c0,10.13-8.22,18.35-18.35,18.35c-2.21,0-4.33-0.41-6.29-1.13c2.37,3.09,3.79,6.94,3.79,11.14
		c0,10.13-8.21,18.35-18.35,18.35c-2.7,0-5.26-0.6-7.57-1.65c1.87,2.88,2.96,6.3,2.96,9.98c0,10.13-8.21,18.35-18.35,18.35
		c-3.18,0-6.17-0.81-8.78-2.23c1.41,2.6,2.21,5.58,2.21,8.74c0,10.13-8.21,18.35-18.34,18.35c-3.7,0-7.13-1.1-10.02-2.98
		c1.04,2.3,1.63,4.84,1.63,7.53c0,10.13-8.21,18.35-18.35,18.35c-4.21,0-8.07-1.43-11.17-3.82c0.71,1.95,1.12,4.05,1.12,6.25
		c0,10.13-8.21,18.35-18.35,18.35c-4.71,0-9-1.79-12.25-4.71c0.44,1.57,0.69,3.21,0.69,4.92c0,10.13-8.21,18.35-18.35,18.35
		c-5.21,0-9.9-2.18-13.24-5.67c0.22,1.14,0.34,2.32,0.34,3.53c0,10.13-8.21,18.35-18.35,18.35c-5.71,0-10.82-2.61-14.18-6.71
		c0.08,0.7,0.13,1.4,0.13,2.12c0,10.13-8.21,18.35-18.35,18.35c-6.24,0-11.74-3.12-15.05-7.88c0.01,0.25,0.04,0.49,0.04,0.74
		c0,10.13-8.21,18.35-18.35,18.35c-6.75,0-12.63-3.66-15.82-9.08c-0.35,9.83-8.4,17.69-18.31,17.69c-7.25,0-13.49-4.21-16.47-10.31
		c-1.04,9.15-8.79,16.26-18.22,16.26c-7.74,0-14.35-4.8-17.04-11.58c-1.63,8.46-9.06,14.86-18.01,14.86
		c-8.23,0-15.19-5.42-17.52-12.88c-2.13,7.78-9.23,13.5-17.68,13.5c-8.72,0-16-6.09-17.87-14.24c-2.53,7.11-9.3,12.21-17.27,12.21
		c-9.2,0-16.8-6.78-18.12-15.61c-2.85,6.42-9.28,10.91-16.76,10.91c-9.67,0-17.58-7.49-18.28-16.98c-3.1,5.73-9.17,9.62-16.14,9.62
		c-10.13,0-18.35-8.21-18.35-18.35c0-0.02,0-0.03,0-0.05c-3.27,5.05-8.94,8.4-15.4,8.4c-10.13,0-18.35-8.22-18.35-18.35
		c0-0.51,0.03-1,0.08-1.5c-3.35,4.41-8.64,7.27-14.6,7.27c-10.13,0-18.35-8.21-18.35-18.35c0-0.99,0.1-1.96,0.25-2.9
		c-3.36,3.79-8.25,6.19-13.71,6.19c-10.13,0-18.35-8.22-18.35-18.35c0-1.47,0.19-2.89,0.52-4.26c-3.3,3.18-7.78,5.15-12.73,5.15
		c-10.13,0-18.35-8.22-18.35-18.35c0-1.95,0.31-3.82,0.87-5.58c-3.17,2.61-7.23,4.18-11.65,4.18c-10.13,0-18.35-8.21-18.35-18.35
		c0-2.45,0.49-4.78,1.36-6.92c-2.98,2.1-6.62,3.35-10.55,3.35c-10.13,0-18.35-8.22-18.35-18.35c0-2.96,0.72-5.74,1.96-8.21
		c-2.75,1.65-5.96,2.61-9.4,2.61c-10.13,0-18.35-8.21-18.35-18.35c0-3.45,0.97-6.67,2.63-9.43c-2.46,1.23-5.23,1.94-8.17,1.94
		c-10.13,0-18.35-8.22-18.35-18.35c0-3.95,1.26-7.6,3.38-10.59c-2.13,0.86-4.45,1.35-6.88,1.35c-10.13,0-18.35-8.22-18.35-18.35
		c0-4.44,1.58-8.5,4.2-11.68c-1.75,0.55-3.6,0.85-5.53,0.85c-10.13,0-18.35-8.21-18.35-18.35c0-4.96,1.98-9.45,5.18-12.76
		c-1.36,0.32-2.77,0.51-4.22,0.51c-10.13,0-18.35-8.21-18.35-18.35c0-5.48,2.41-10.38,6.22-13.74c-0.93,0.15-1.89,0.25-2.86,0.25
		c-10.13,0-18.35-8.22-18.35-18.35c0-5.98,2.88-11.28,7.31-14.63c-0.48,0.04-0.96,0.07-1.45,0.07c-10.13,0-18.35-8.21-18.35-18.35
		c0-6.48,3.37-12.16,8.44-15.42c0,0,0,0-0.01,0c-10.13,0-18.35-8.22-18.35-18.35c0-6.99,3.91-13.06,9.66-16.16
		c-9.48-0.72-16.95-8.62-16.95-18.28c0-7.5,4.5-13.94,10.95-16.78c-8.81-1.34-15.57-8.93-15.57-18.12c0-7.99,5.12-14.77,12.25-17.29
		c-8.13-1.88-14.2-9.15-14.2-17.86c0-8.47,5.75-15.58,13.54-17.69c-7.44-2.34-12.84-9.29-12.84-17.51c0-8.96,6.42-16.4,14.91-18.01
		c-6.76-2.71-11.54-9.3-11.54-17.03c0-9.44,7.13-17.21,16.3-18.23c-6.07-2.99-10.26-9.22-10.26-16.45c0-9.92,7.88-17.99,17.73-18.32
		c-5.41-3.19-9.04-9.06-9.04-15.79c0-10.13,8.21-18.35,18.35-18.35c0.27,0,0.52,0.03,0.79,0.04c-4.74-3.32-7.84-8.81-7.84-15.03
		c0-10.13,8.21-18.35,18.35-18.35c0.73,0,1.45,0.05,2.15,0.14c-4.08-3.37-6.67-8.46-6.67-14.15c0-10.13,8.21-18.35,18.35-18.35
		c1.22,0,2.41,0.12,3.56,0.35c-3.47-3.34-5.63-8.02-5.63-13.21c0-10.13,8.21-18.35,18.35-18.35c1.72,0,3.38,0.25,4.96,0.7
		c-2.9-3.25-4.68-7.52-4.68-12.21c0-10.13,8.21-18.35,18.35-18.35c2.21,0,4.33,0.41,6.29,1.13c-2.37-3.09-3.79-6.94-3.79-11.14
		c0-10.13,8.22-18.35,18.35-18.35c2.7,0,5.26,0.6,7.57,1.65c-1.87-2.87-2.97-6.3-2.97-9.98c0-10.13,8.21-18.35,18.35-18.35
		c3.18,0,6.17,0.81,8.78,2.24c-1.41-2.6-2.21-5.58-2.21-8.74c0-10.13,8.21-18.35,18.35-18.35c3.7,0,7.13,1.1,10.01,2.98
		c-1.04-2.3-1.63-4.84-1.63-7.52c0-10.13,8.22-18.35,18.35-18.35c4.21,0,8.07,1.43,11.17,3.81c-0.71-1.95-1.11-4.05-1.11-6.25
		c0-10.13,8.21-18.35,18.35-18.35c4.71,0,9,1.79,12.25,4.71c-0.44-1.57-0.69-3.21-0.69-4.92c0-10.13,8.22-18.35,18.35-18.35
		c5.21,0,9.9,2.18,13.24,5.67c-0.22-1.14-0.35-2.32-0.35-3.52c0-10.13,8.22-18.35,18.35-18.35c5.71,0,10.82,2.61,14.18,6.71
		c-0.08-0.7-0.13-1.4-0.13-2.12c0-10.13,8.21-18.35,18.35-18.35c6.24,0,11.74,3.12,15.05,7.87c-0.01-0.25-0.04-0.49-0.04-0.74
		c0-10.13,8.21-18.35,18.35-18.35c6.75,0,12.63,3.65,15.82,9.08c0.35-9.83,8.4-17.69,18.31-17.69c7.25,0,13.49,4.21,16.47,10.31
		c1.04-9.15,8.79-16.26,18.22-16.26c7.74,0,14.35,4.8,17.04,11.58c1.63-8.47,9.07-14.86,18.01-14.86c8.23,0,15.19,5.42,17.52,12.88
		C493.78,28.09,500.88,22.37,509.33,22.37 M509.33,7.37c-6.56,0-12.79,1.94-18.04,5.33c-5.05-3.02-10.93-4.71-17.16-4.71
		c-7.49,0-14.49,2.5-20.13,6.78c-4.52-2.26-9.6-3.49-14.92-3.49c-8.45,0-16.21,3.15-22.12,8.39c-3.91-1.58-8.16-2.43-12.57-2.43
		c-9.46,0-17.99,3.89-24.04,10.19c-3.22-1.03-6.62-1.58-10.09-1.58c-10.33,0-19.57,4.72-25.69,12.11c-2.49-0.59-5.06-0.9-7.67-0.9
		c-11.25,0-21.21,5.6-27.25,14.15c-1.69-0.26-3.41-0.4-5.14-0.4c-12.17,0-22.83,6.55-28.66,16.31c-0.86-0.07-1.72-0.1-2.59-0.1
		c-13.08,0-24.42,7.57-29.88,18.55c-0.01,0-0.02,0-0.02,0c-13.98,0-25.98,8.65-30.93,20.88c-13.77,1.04-25.23,10.47-29.26,23.18
		c-13.48,2.06-24.33,12.22-27.41,25.33c-13.13,3.05-23.31,13.88-25.4,27.35c-12.72,4.01-22.18,15.45-23.24,29.21
		c-12.25,4.92-20.93,16.92-20.95,30.91c-11.02,5.45-18.62,16.81-18.62,29.92c0,0.84,0.03,1.68,0.09,2.51
		c-9.79,5.82-16.37,16.5-16.37,28.69c0,1.71,0.13,3.41,0.38,5.07c-8.59,6.04-14.21,16.02-14.21,27.29c0,2.58,0.3,5.13,0.88,7.59
		c-7.43,6.12-12.17,15.39-12.17,25.74c0,3.45,0.55,6.84,1.57,10.06c-0.29,0.28-0.57,0.56-0.85,0.84
		c-6.07,6.25-9.41,14.49-9.41,23.21c0,4.38,0.84,8.6,2.4,12.49c-5.27,5.92-8.44,13.71-8.44,22.19c0,5.29,1.22,10.34,3.46,14.85
		c-4.3,5.65-6.82,12.68-6.82,20.2c0,6.19,1.68,12.05,4.67,17.08c-3.42,5.27-5.37,11.52-5.37,18.11c0,7.1,2.2,13.74,6.03,19.2
		c-2.62,4.79-4.08,10.25-4.08,15.95c0,7.73,2.69,15.21,7.59,21.16c-1.92,4.24-2.97,8.9-2.97,13.74c0,8.47,3.18,16.54,8.95,22.72
		c0.11,0.12,0.22,0.23,0.33,0.35c-1.3,3.59-1.99,7.42-1.99,11.37c0,9.86,4.3,18.73,11.13,24.84c-0.79,2.87-1.21,5.86-1.21,8.93
		c0,10.78,5.14,20.38,13.1,26.48c-0.4,2.09-0.61,4.24-0.61,6.42c0,11.71,6.06,22.03,15.22,27.98c-0.15,1.28-0.23,2.57-0.23,3.87
		c0,12.62,7.05,23.63,17.42,29.29C76.01,741,76,741.44,76,741.87c0,13.53,8.1,25.21,19.71,30.43c0.52,13.89,9.56,25.63,22.04,30.13
		c1.55,13.63,11.35,24.79,24.27,28.36c2.56,13.31,13.06,23.83,26.36,26.42c3.54,12.93,14.68,22.76,28.3,24.34
		c4.47,12.49,16.2,21.56,30.08,22.11c5.21,11.64,16.9,19.78,30.46,19.78c0.41,0,0.82-0.01,1.23-0.02
		c5.65,10.41,16.68,17.49,29.33,17.49c1.27,0,2.54-0.07,3.79-0.22c5.95,9.19,16.28,15.28,28.02,15.28c2.16,0,4.28-0.2,6.34-0.6
		c6.1,8,15.72,13.17,26.53,13.17c3.04,0,6.01-0.41,8.85-1.19c6.11,6.86,15.01,11.18,24.9,11.18c3.93,0,7.76-0.69,11.35-1.99
		c6.02,5.79,14.19,9.35,23.08,9.35c4.8,0,9.44-1.04,13.66-2.93c5.96,4.93,13.47,7.64,21.23,7.64c5.67,0,11.1-1.45,15.88-4.04
		c5.47,3.86,12.13,6.08,19.26,6.08c6.56,0,12.79-1.94,18.04-5.33c5.05,3.02,10.93,4.71,17.16,4.71c7.49,0,14.49-2.5,20.13-6.78
		c4.52,2.25,9.6,3.49,14.92,3.49c8.44,0,16.21-3.15,22.12-8.38c3.91,1.58,8.16,2.43,12.57,2.43c9.46,0,17.99-3.89,24.04-10.19
		c3.22,1.03,6.62,1.58,10.08,1.58c10.33,0,19.57-4.72,25.69-12.11c2.49,0.59,5.06,0.9,7.67,0.9c11.25,0,21.21-5.6,27.25-14.15
		c1.69,0.26,3.41,0.39,5.14,0.39c12.16,0,22.83-6.55,28.65-16.3c0.86,0.07,1.72,0.1,2.59,0.1c13.08,0,24.42-7.57,29.88-18.55
		c0.01,0,0.02,0,0.03,0c13.98,0,25.98-8.65,30.93-20.88c13.76-1.04,25.23-10.47,29.26-23.18c13.48-2.06,24.33-12.22,27.41-25.33
		c13.13-3.05,23.31-13.88,25.4-27.35c12.72-4.01,22.18-15.45,23.25-29.21c12.25-4.92,20.93-16.92,20.95-30.91
		c11.02-5.45,18.62-16.81,18.62-29.91c0-0.84-0.03-1.68-0.09-2.51c9.79-5.82,16.37-16.5,16.37-28.69c0-1.71-0.13-3.41-0.38-5.07
		c8.59-6.04,14.21-16.02,14.21-27.3c0-2.58-0.3-5.13-0.88-7.59c7.43-6.12,12.17-15.39,12.17-25.74c0-3.45-0.55-6.85-1.57-10.06
		c0.29-0.28,0.57-0.56,0.85-0.84c6.07-6.25,9.41-14.49,9.41-23.2c0-4.38-0.84-8.6-2.4-12.49c5.27-5.92,8.44-13.71,8.44-22.19
		c0-5.28-1.22-10.34-3.46-14.84c4.3-5.65,6.82-12.68,6.82-20.19c0-6.19-1.68-12.05-4.67-17.09c3.42-5.27,5.37-11.52,5.37-18.11
		c0-7.1-2.2-13.74-6.03-19.19c2.62-4.79,4.08-10.25,4.08-15.95c0-7.73-2.69-15.21-7.59-21.16c1.92-4.24,2.97-8.9,2.97-13.74
		c0-8.47-3.18-16.54-8.95-22.72c-0.11-0.12-0.22-0.23-0.33-0.35c1.3-3.59,1.99-7.42,1.99-11.37c0-9.86-4.3-18.74-11.13-24.85
		c0.79-2.87,1.21-5.86,1.21-8.92c0-10.78-5.14-20.38-13.1-26.48c0.4-2.09,0.61-4.24,0.61-6.42c0-11.71-6.06-22.02-15.22-27.98
		c0.15-1.28,0.23-2.57,0.23-3.87c0-12.62-7.05-23.63-17.42-29.29c0.02-0.43,0.03-0.87,0.03-1.31c0-13.53-8.1-25.21-19.71-30.43
		c-0.52-13.89-9.56-25.63-22.04-30.13c-1.55-13.63-11.35-24.79-24.27-28.36c-2.56-13.31-13.06-23.83-26.37-26.42
		c-3.53-12.93-14.68-22.76-28.3-24.34c-4.47-12.49-16.2-21.57-30.08-22.11c-5.21-11.64-16.9-19.78-30.46-19.78
		c-0.41,0-0.82,0.01-1.23,0.02c-5.65-10.41-16.68-17.48-29.33-17.48c-1.27,0-2.54,0.07-3.79,0.22
		c-5.95-9.19-16.28-15.28-28.02-15.28c-2.16,0-4.28,0.2-6.34,0.6c-6.1-8-15.72-13.17-26.53-13.17c-3.04,0-6.01,0.41-8.85,1.19
		c-6.11-6.86-15.01-11.18-24.9-11.18c-3.93,0-7.76,0.69-11.34,1.98c-6.02-5.79-14.19-9.35-23.08-9.35c-4.8,0-9.44,1.04-13.66,2.94
		c-5.96-4.93-13.46-7.64-21.22-7.64c-5.67,0-11.1,1.45-15.88,4.04C523.13,9.59,516.47,7.37,509.33,7.37L509.33,7.37z"/>
	<path style="fill:#8A6F87;" d="M976.95,526.92c0-8.22-5.4-15.17-12.84-17.51c7.8-2.11,13.54-9.22,13.54-17.69
		c0-8.71-6.07-15.98-14.2-17.86c7.13-2.51,12.25-9.3,12.25-17.29c0-9.19-6.76-16.77-15.57-18.12c6.45-2.85,10.95-9.28,10.95-16.78
		c0-9.66-7.47-17.56-16.95-18.28c5.75-3.1,9.66-9.17,9.66-16.16c0-10.13-8.21-18.35-18.35-18.35c0,0-0.01,0-0.01,0
		c5.07-3.26,8.43-8.95,8.43-15.43c0-10.14-8.21-18.35-18.35-18.35c-0.49,0-0.97,0.04-1.46,0.07c4.43-3.35,7.31-8.65,7.31-14.63
		c0-10.13-8.21-18.35-18.35-18.35c-0.98,0-1.93,0.1-2.86,0.25c3.81-3.36,6.22-8.26,6.22-13.74c0-10.13-8.21-18.35-18.35-18.35
		c-1.46,0-2.86,0.19-4.22,0.51c3.2-3.3,5.18-7.8,5.18-12.76c0-10.13-8.21-18.35-18.35-18.35c-1.93,0-3.79,0.3-5.53,0.85
		c2.62-3.17,4.2-7.24,4.2-11.68c0-10.13-8.21-18.35-18.35-18.35c-2.44,0-4.76,0.49-6.88,1.35c2.12-2.99,3.38-6.64,3.38-10.59
		c0-10.13-8.21-18.35-18.35-18.35c-2.94,0-5.71,0.71-8.18,1.94c1.66-2.76,2.63-5.98,2.63-9.44c0-10.13-8.21-18.35-18.35-18.35
		c-3.44,0-6.64,0.96-9.4,2.61c1.24-2.47,1.96-5.26,1.96-8.21c0-10.13-8.21-18.35-18.35-18.35c-3.93,0-7.56,1.25-10.55,3.35
		c0.87-2.14,1.36-4.47,1.36-6.92c0-10.13-8.21-18.35-18.34-18.35c-4.42,0-8.48,1.57-11.65,4.17c0.56-1.76,0.87-3.63,0.87-5.58
		c0-10.13-8.22-18.35-18.35-18.35c-4.95,0-9.43,1.97-12.73,5.15c0.33-1.37,0.52-2.79,0.52-4.27c0-10.13-8.22-18.35-18.35-18.35
		c-5.46,0-10.35,2.4-13.71,6.19c0.15-0.95,0.25-1.91,0.25-2.9c0-10.13-8.21-18.35-18.35-18.35c-5.97,0-11.25,2.86-14.61,7.27
		c0.04-0.49,0.08-0.99,0.08-1.5c0-10.13-8.21-18.35-18.35-18.35c-6.46,0-12.14,3.35-15.4,8.4c0-0.02,0-0.03,0-0.05
		c0-10.13-8.21-18.35-18.35-18.35c-6.97,0-13.04,3.89-16.14,9.62c-0.7-9.49-8.6-16.98-18.28-16.98c-7.48,0-13.91,4.49-16.77,10.91
		c-1.32-8.83-8.92-15.61-18.12-15.61c-7.98,0-14.75,5.1-17.27,12.22c-1.87-8.16-9.15-14.25-17.87-14.25
		c-8.45,0-15.55,5.72-17.68,13.5c-2.33-7.46-9.29-12.88-17.52-12.88c-8.94,0-16.38,6.4-18.01,14.86c-2.7-6.78-9.3-11.58-17.04-11.58
		c-9.43,0-17.19,7.11-18.22,16.26c-2.98-6.1-9.23-10.31-16.47-10.31c-9.91,0-17.97,7.86-18.31,17.69
		c-3.19-5.43-9.07-9.08-15.82-9.08c-10.13,0-18.35,8.21-18.35,18.35c0,0.25,0.03,0.49,0.04,0.74c-3.31-4.76-8.81-7.87-15.05-7.87
		c-10.13,0-18.35,8.21-18.35,18.35c0,0.72,0.05,1.42,0.13,2.12c-3.36-4.1-8.47-6.71-14.18-6.71c-10.13,0-18.35,8.21-18.35,18.35
		c0,1.21,0.12,2.38,0.35,3.52c-3.34-3.49-8.03-5.67-13.24-5.67c-10.13,0-18.35,8.21-18.35,18.35c0,1.71,0.25,3.35,0.69,4.92
		c-3.25-2.92-7.53-4.71-12.25-4.71c-10.13,0-18.35,8.21-18.35,18.35c0,2.2,0.41,4.3,1.11,6.25c-3.09-2.38-6.96-3.81-11.17-3.81
		c-10.13,0-18.35,8.21-18.35,18.35c0,2.68,0.59,5.23,1.63,7.52c-2.88-1.88-6.32-2.98-10.01-2.98c-10.13,0-18.35,8.21-18.35,18.35
		c0,3.17,0.8,6.14,2.21,8.74c-2.61-1.42-5.6-2.24-8.78-2.24c-10.13,0-18.35,8.21-18.35,18.35c0,3.68,1.1,7.11,2.97,9.98
		c-2.31-1.05-4.87-1.65-7.57-1.65c-10.13,0-18.35,8.21-18.35,18.35c0,4.19,1.42,8.05,3.79,11.14c-1.96-0.72-4.08-1.13-6.29-1.13
		c-10.13,0-18.35,8.21-18.35,18.35c0,4.7,1.78,8.97,4.68,12.21c-1.58-0.44-3.24-0.7-4.96-0.7c-10.13,0-18.35,8.21-18.35,18.35
		c0,5.19,2.17,9.87,5.63,13.21c-1.15-0.23-2.34-0.35-3.56-0.35c-10.13,0-18.35,8.21-18.35,18.35c0,5.7,2.6,10.79,6.67,14.15
		c-0.71-0.08-1.42-0.14-2.15-0.14c-10.13,0-18.35,8.21-18.35,18.35c0,6.22,3.11,11.71,7.84,15.03c-0.26-0.01-0.52-0.04-0.79-0.04
		c-10.13,0-18.35,8.21-18.35,18.35c0,6.73,3.64,12.6,9.04,15.79c-9.84,0.33-17.73,8.39-17.73,18.32c0,7.23,4.19,13.46,10.26,16.45
		c-9.17,1.02-16.3,8.78-16.3,18.23c0,7.72,4.78,14.32,11.54,17.03c-8.49,1.61-14.91,9.06-14.91,18.01c0,8.21,5.4,15.17,12.84,17.51
		c-7.8,2.11-13.54,9.22-13.54,17.69c0,8.7,6.07,15.98,14.2,17.86c-7.13,2.52-12.25,9.3-12.25,17.29c0,9.18,6.76,16.77,15.57,18.12
		c-6.44,2.84-10.95,9.28-10.95,16.78c0,9.66,7.47,17.56,16.95,18.28c-5.75,3.1-9.66,9.17-9.66,16.16c0,10.13,8.21,18.35,18.35,18.35
		c0,0,0,0,0.01,0c-5.07,3.26-8.44,8.94-8.44,15.42c0,10.13,8.22,18.35,18.35,18.35c0.49,0,0.97-0.04,1.45-0.07
		c-4.43,3.35-7.31,8.65-7.31,14.63c0,10.13,8.21,18.35,18.35,18.35c0.98,0,1.93-0.1,2.86-0.25c-3.81,3.36-6.22,8.27-6.22,13.74
		c0,10.13,8.22,18.35,18.35,18.35c1.46,0,2.86-0.19,4.22-0.51c-3.2,3.3-5.18,7.8-5.18,12.76c0,10.13,8.21,18.35,18.35,18.35
		c1.93,0,3.79-0.3,5.53-0.85c-2.62,3.17-4.2,7.24-4.2,11.68c0,10.13,8.21,18.35,18.35,18.35c2.44,0,4.76-0.49,6.88-1.35
		c-2.12,2.99-3.38,6.64-3.38,10.59c0,10.13,8.22,18.35,18.35,18.35c2.94,0,5.71-0.71,8.17-1.94c-1.66,2.76-2.63,5.98-2.63,9.43
		c0,10.13,8.21,18.35,18.35,18.35c3.44,0,6.65-0.96,9.4-2.61c-1.24,2.47-1.96,5.25-1.96,8.21c0,10.13,8.21,18.35,18.35,18.35
		c3.93,0,7.56-1.25,10.55-3.35c-0.87,2.13-1.36,4.47-1.36,6.92c0,10.13,8.21,18.35,18.35,18.35c4.43,0,8.48-1.57,11.65-4.18
		c-0.56,1.76-0.87,3.63-0.87,5.58c0,10.13,8.21,18.35,18.35,18.35c4.95,0,9.43-1.97,12.73-5.15c-0.33,1.37-0.52,2.79-0.52,4.26
		c0,10.13,8.21,18.35,18.35,18.35c5.46,0,10.35-2.4,13.71-6.19c-0.15,0.95-0.25,1.91-0.25,2.9c0,10.13,8.21,18.35,18.35,18.35
		c5.97,0,11.25-2.86,14.6-7.27c-0.04,0.5-0.08,0.99-0.08,1.5c0,10.13,8.21,18.35,18.35,18.35c6.46,0,12.14-3.35,15.4-8.4
		c0,0.02,0,0.03,0,0.05c0,10.13,8.21,18.35,18.35,18.35c6.97,0,13.04-3.89,16.14-9.62c0.7,9.49,8.61,16.98,18.28,16.98
		c7.48,0,13.91-4.49,16.76-10.91c1.32,8.83,8.92,15.61,18.12,15.61c7.98,0,14.75-5.1,17.27-12.21c1.87,8.15,9.15,14.24,17.87,14.24
		c8.45,0,15.55-5.73,17.68-13.5c2.33,7.46,9.29,12.88,17.52,12.88c8.94,0,16.38-6.4,18.01-14.86c2.69,6.78,9.3,11.58,17.04,11.58
		c9.43,0,17.19-7.11,18.22-16.26c2.98,6.1,9.23,10.31,16.47,10.31c9.91,0,17.96-7.87,18.31-17.69c3.19,5.43,9.07,9.08,15.82,9.08
		c10.13,0,18.35-8.22,18.35-18.35c0-0.25-0.03-0.49-0.04-0.74c3.32,4.76,8.82,7.88,15.05,7.88c10.13,0,18.35-8.22,18.35-18.35
		c0-0.72-0.05-1.42-0.13-2.12c3.36,4.1,8.47,6.71,14.18,6.71c10.13,0,18.35-8.21,18.35-18.35c0-1.21-0.12-2.39-0.34-3.53
		c3.34,3.49,8.03,5.67,13.24,5.67c10.13,0,18.35-8.22,18.35-18.35c0-1.71-0.25-3.35-0.69-4.92c3.25,2.92,7.54,4.71,12.25,4.71
		c10.13,0,18.35-8.21,18.35-18.35c0-2.2-0.41-4.3-1.12-6.25c3.1,2.38,6.96,3.82,11.17,3.82c10.13,0,18.35-8.22,18.35-18.35
		c0-2.68-0.59-5.23-1.63-7.53c2.88,1.88,6.32,2.98,10.02,2.98c10.13,0,18.34-8.22,18.34-18.35c0-3.17-0.8-6.14-2.21-8.74
		c2.61,1.42,5.6,2.23,8.78,2.23c10.13,0,18.35-8.22,18.35-18.35c0-3.68-1.09-7.11-2.96-9.98c2.31,1.05,4.86,1.65,7.57,1.65
		c10.13,0,18.35-8.22,18.35-18.35c0-4.19-1.42-8.04-3.79-11.14c1.96,0.72,4.08,1.13,6.29,1.13c10.13,0,18.35-8.22,18.35-18.35
		c0-4.7-1.78-8.97-4.68-12.21c1.58,0.44,3.24,0.69,4.96,0.69c10.13,0,18.35-8.21,18.35-18.34c0-5.19-2.17-9.87-5.63-13.21
		c1.15,0.23,2.34,0.35,3.56,0.35c10.14,0,18.35-8.22,18.35-18.35c0-5.7-2.6-10.79-6.67-14.16c0.71,0.08,1.42,0.14,2.15,0.14
		c10.13,0,18.35-8.21,18.35-18.35c0-6.22-3.1-11.71-7.84-15.03c0.26,0.01,0.52,0.04,0.79,0.04c10.13,0,18.35-8.22,18.35-18.35
		c0-6.73-3.63-12.6-9.04-15.79c9.84-0.33,17.73-8.4,17.73-18.32c0-7.23-4.19-13.46-10.26-16.45c9.17-1.02,16.3-8.79,16.3-18.23
		c0-7.73-4.78-14.32-11.54-17.03C970.53,543.32,976.95,535.88,976.95,526.92z"/>
	<path id="XMLID_11_" style="fill:#8D4249;" d="M865.35,520.62c0-6.29-4.14-11.62-9.84-13.41c5.97-1.62,10.38-7.06,10.38-13.55
		c0-6.67-4.65-12.24-10.88-13.68c5.46-1.93,9.38-7.12,9.38-13.24c0-7.04-5.17-12.85-11.92-13.88c4.94-2.18,8.39-7.11,8.39-12.86
		c0-7.4-5.72-13.45-12.98-14c4.41-2.37,7.4-7.03,7.4-12.38c0-7.76-6.29-14.05-14.05-14.05c0,0,0,0,0,0
		c3.88-2.5,6.46-6.85,6.46-11.82c0-7.76-6.29-14.05-14.05-14.05c-0.38,0-0.75,0.03-1.12,0.06c3.4-2.57,5.6-6.62,5.6-11.21
		c0-7.76-6.29-14.05-14.05-14.05c-0.75,0-1.48,0.08-2.19,0.19c2.92-2.58,4.76-6.33,4.76-10.53c0-7.76-6.29-14.05-14.05-14.05
		c-1.12,0-2.19,0.14-3.23,0.39c2.45-2.53,3.97-5.97,3.97-9.77c0-7.76-6.29-14.05-14.06-14.05c-1.48,0-2.9,0.23-4.24,0.65
		c2.01-2.43,3.22-5.55,3.22-8.95c0-7.76-6.29-14.05-14.05-14.05c-1.87,0-3.64,0.37-5.27,1.03c1.62-2.29,2.59-5.09,2.59-8.11
		c0-7.76-6.29-14.05-14.05-14.05c-2.25,0-4.38,0.54-6.26,1.49c1.27-2.11,2.02-4.58,2.02-7.23c0-7.76-6.29-14.06-14.06-14.06
		c-2.63,0-5.09,0.74-7.2,2c0.95-1.89,1.5-4.03,1.5-6.29c0-7.76-6.29-14.05-14.05-14.05c-3.01,0-5.79,0.95-8.08,2.57
		c0.67-1.64,1.04-3.42,1.04-5.3c0-7.76-6.29-14.06-14.05-14.06c-3.39,0-6.5,1.2-8.93,3.2c0.43-1.35,0.67-2.78,0.67-4.27
		c0-7.76-6.29-14.05-14.05-14.05c-3.79,0-7.22,1.51-9.75,3.95c0.25-1.05,0.4-2.14,0.4-3.27c0-7.76-6.29-14.06-14.05-14.06
		c-4.19,0-7.93,1.84-10.5,4.74c0.12-0.73,0.19-1.47,0.19-2.22c0-7.76-6.29-14.05-14.05-14.05c-4.57,0-8.62,2.19-11.19,5.57
		c0.03-0.38,0.06-0.76,0.06-1.15c0-7.76-6.29-14.05-14.06-14.05c-4.95,0-9.29,2.57-11.8,6.44c0-0.01,0-0.03,0-0.04
		c0-7.76-6.29-14.05-14.05-14.05c-5.34,0-9.99,2.98-12.37,7.37c-0.54-7.27-6.59-13.01-14-13.01c-5.73,0-10.65,3.44-12.84,8.36
		c-1.02-6.77-6.83-11.96-13.88-11.96c-6.11,0-11.3,3.91-13.23,9.36c-1.43-6.25-7.01-10.91-13.69-10.91
		c-6.48,0-11.91,4.38-13.54,10.34c-1.78-5.72-7.11-9.86-13.42-9.86c-6.85,0-12.55,4.9-13.79,11.38c-2.06-5.19-7.12-8.87-13.05-8.87
		c-7.22,0-13.16,5.45-13.96,12.46c-2.28-4.67-7.07-7.9-12.62-7.9c-7.59,0-13.76,6.02-14.03,13.55c-2.44-4.16-6.94-6.96-12.12-6.96
		c-7.76,0-14.05,6.29-14.05,14.05c0,0.19,0.02,0.38,0.03,0.57c-2.54-3.64-6.75-6.03-11.53-6.03c-7.76,0-14.05,6.29-14.05,14.06
		c0,0.55,0.04,1.09,0.1,1.62c-2.58-3.14-6.49-5.14-10.86-5.14c-7.76,0-14.05,6.29-14.05,14.05c0,0.92,0.1,1.83,0.27,2.7
		c-2.56-2.67-6.15-4.34-10.14-4.34c-7.76,0-14.05,6.29-14.05,14.06c0,1.31,0.19,2.57,0.53,3.77c-2.49-2.24-5.77-3.61-9.38-3.61
		c-7.76,0-14.06,6.29-14.06,14.05c0,1.69,0.31,3.29,0.86,4.79c-2.37-1.82-5.33-2.92-8.56-2.92c-7.76,0-14.05,6.29-14.05,14.06
		c0,2.06,0.45,4,1.25,5.76c-2.21-1.44-4.84-2.29-7.67-2.29c-7.76,0-14.06,6.29-14.06,14.05c0,2.43,0.61,4.71,1.7,6.7
		c-2-1.09-4.29-1.71-6.73-1.71c-7.76,0-14.06,6.29-14.06,14.06c0,2.82,0.84,5.44,2.27,7.64c-1.77-0.8-3.73-1.26-5.8-1.26
		c-7.76,0-14.05,6.29-14.05,14.05c0,3.21,1.09,6.16,2.9,8.53c-1.5-0.55-3.12-0.86-4.82-0.86c-7.76,0-14.05,6.29-14.05,14.05
		c0,3.6,1.36,6.87,3.59,9.36c-1.21-0.34-2.48-0.53-3.8-0.53c-7.76,0-14.05,6.29-14.05,14.05c0,3.98,1.66,7.56,4.32,10.12
		c-0.88-0.17-1.8-0.27-2.73-0.27c-7.76,0-14.05,6.29-14.05,14.05c0,4.37,1.99,8.27,5.11,10.84c-0.54-0.06-1.09-0.1-1.65-0.1
		c-7.76,0-14.05,6.29-14.05,14.05c0,4.77,2.38,8.97,6.01,11.51c-0.2-0.01-0.4-0.03-0.6-0.03c-7.76,0-14.06,6.29-14.06,14.06
		c0,5.16,2.79,9.65,6.93,12.1c-7.54,0.25-13.58,6.43-13.58,14.03c0,5.54,3.21,10.31,7.86,12.6c-7.02,0.78-12.49,6.73-12.49,13.96
		c0,5.92,3.66,10.97,8.84,13.04c-6.5,1.23-11.42,6.94-11.42,13.8c0,6.29,4.14,11.62,9.84,13.41c-5.97,1.62-10.38,7.06-10.38,13.55
		c0,6.67,4.65,12.24,10.88,13.68c-5.46,1.93-9.39,7.12-9.39,13.24c0,7.03,5.18,12.85,11.92,13.88c-4.94,2.18-8.39,7.11-8.39,12.85
		c0,7.4,5.72,13.45,12.98,14c-4.4,2.38-7.4,7.03-7.4,12.38c0,7.76,6.29,14.05,14.05,14.05c0,0,0,0,0,0
		c-3.88,2.5-6.46,6.85-6.46,11.81c0,7.76,6.29,14.06,14.05,14.06c0.38,0,0.75-0.03,1.11-0.06c-3.4,2.57-5.6,6.62-5.6,11.21
		c0,7.76,6.29,14.05,14.05,14.05c0.75,0,1.48-0.08,2.19-0.19c-2.92,2.58-4.76,6.33-4.76,10.53c0,7.76,6.29,14.05,14.05,14.05
		c1.11,0,2.19-0.14,3.23-0.39c-2.45,2.53-3.97,5.97-3.97,9.77c0,7.76,6.29,14.05,14.05,14.05c1.48,0,2.9-0.23,4.24-0.65
		c-2.01,2.43-3.22,5.55-3.22,8.95c0,7.76,6.29,14.05,14.05,14.05c1.87,0,3.64-0.37,5.27-1.03c-1.62,2.29-2.59,5.09-2.59,8.11
		c0,7.76,6.29,14.06,14.06,14.06c2.25,0,4.37-0.55,6.26-1.49c-1.27,2.11-2.02,4.58-2.02,7.23c0,7.76,6.29,14.05,14.05,14.05
		c2.63,0,5.09-0.74,7.2-2c-0.95,1.89-1.5,4.03-1.5,6.29c0,7.76,6.29,14.06,14.05,14.06c3.01,0,5.79-0.96,8.08-2.57
		c-0.67,1.63-1.04,3.42-1.04,5.3c0,7.76,6.29,14.06,14.05,14.06c3.39,0,6.5-1.2,8.93-3.2c-0.43,1.35-0.67,2.79-0.67,4.28
		c0,7.76,6.29,14.05,14.06,14.05c3.79,0,7.22-1.51,9.75-3.94c-0.25,1.05-0.4,2.14-0.4,3.27c0,7.76,6.29,14.06,14.05,14.06
		c4.18,0,7.93-1.84,10.5-4.74c-0.12,0.73-0.19,1.47-0.19,2.22c0,7.76,6.29,14.06,14.06,14.06c4.57,0,8.62-2.19,11.19-5.57
		c-0.03,0.38-0.06,0.76-0.06,1.15c0,7.76,6.29,14.05,14.05,14.05c4.95,0,9.3-2.57,11.8-6.44c0,0.01,0,0.03,0,0.04
		c0,7.76,6.29,14.05,14.06,14.05c5.34,0,9.99-2.98,12.37-7.37c0.54,7.27,6.59,13.01,14,13.01c5.73,0,10.65-3.44,12.84-8.36
		c1.01,6.77,6.83,11.96,13.88,11.96c6.11,0,11.3-3.91,13.23-9.36c1.43,6.25,7.01,10.91,13.69,10.91c6.48,0,11.91-4.39,13.54-10.34
		c1.78,5.72,7.12,9.87,13.42,9.87c6.85,0,12.55-4.9,13.79-11.39c2.07,5.2,7.13,8.87,13.05,8.87c7.22,0,13.16-5.45,13.96-12.46
		c2.28,4.67,7.07,7.9,12.62,7.9c7.59,0,13.76-6.02,14.03-13.55c2.44,4.15,6.95,6.96,12.12,6.96c7.76,0,14.05-6.29,14.05-14.05
		c0-0.19-0.02-0.38-0.03-0.57c2.54,3.64,6.75,6.03,11.53,6.03c7.76,0,14.05-6.29,14.05-14.06c0-0.55-0.04-1.09-0.1-1.62
		c2.58,3.14,6.49,5.14,10.87,5.14c7.76,0,14.05-6.29,14.05-14.05c0-0.92-0.09-1.83-0.27-2.7c2.56,2.67,6.15,4.34,10.14,4.34
		c7.76,0,14.05-6.29,14.05-14.06c0-1.31-0.19-2.57-0.53-3.77c2.49,2.24,5.77,3.61,9.38,3.61c7.76,0,14.05-6.29,14.05-14.05
		c0-1.68-0.31-3.29-0.85-4.79c2.37,1.83,5.33,2.92,8.56,2.92c7.76,0,14.05-6.29,14.05-14.06c0-2.05-0.45-4-1.24-5.76
		c2.21,1.44,4.84,2.29,7.67,2.29c7.76,0,14.05-6.29,14.05-14.05c0-2.42-0.62-4.71-1.69-6.7c2,1.09,4.29,1.71,6.72,1.71
		c7.76,0,14.06-6.3,14.06-14.06c0-2.82-0.84-5.44-2.27-7.65c1.77,0.8,3.73,1.26,5.8,1.26c7.76,0,14.05-6.29,14.05-14.06
		c0-3.21-1.09-6.16-2.9-8.53c1.5,0.55,3.12,0.87,4.82,0.87c7.76,0,14.05-6.29,14.05-14.05c0-3.6-1.36-6.87-3.59-9.36
		c1.21,0.34,2.48,0.53,3.79,0.53c7.76,0,14.06-6.29,14.06-14.05c0-3.98-1.66-7.56-4.31-10.12c0.88,0.18,1.79,0.27,2.73,0.27
		c7.76,0,14.05-6.29,14.05-14.05c0-4.37-1.99-8.27-5.11-10.84c0.54,0.06,1.09,0.1,1.65,0.1c7.76,0,14.05-6.29,14.05-14.05
		c0-4.77-2.38-8.97-6.01-11.51c0.2,0.01,0.4,0.03,0.6,0.03c7.76,0,14.05-6.29,14.05-14.05c0-5.16-2.79-9.66-6.92-12.1
		c7.54-0.25,13.58-6.43,13.58-14.03c0-5.54-3.21-10.31-7.86-12.6c7.02-0.78,12.49-6.73,12.49-13.96c0-5.92-3.66-10.97-8.84-13.04
		C860.43,533.19,865.35,527.48,865.35,520.62z"/>
	<g>
		<path style="fill:#F9EBEB;" d="M184.99,257.37c-1.57-1.07-3.2-1.62-4.84-1.62c-1.84,0-4.49,0.68-6.7,3.91l-6.17,9.74l-0.07,0.11
			c-0.37,0.62-1.02,1.62-1.95,2.98l-17.33-11.92l-13.72-9.65l-0.13-0.09c-1.64-1.07-3.32-1.62-4.99-1.62c-1.55,0-4.5,0.52-6.87,3.98
			c-3.11,4.55-2.46,9.3,1.7,12.38l18.83,12.76c1.1,0.75,2.41,1.68,3.91,2.76c0.61,0.49,1.32,1,2.12,1.55l12.34,8.71l0.43,0.27
			c1.96,1.08,3.76,1.6,5.5,1.6c1.11,0,2.18-0.22,3.21-0.68c2-0.92,3.86-2.86,6.02-6.27l2.83-4.42l8.46-12.25
			c1.89-2.77,1.84-5.21,1.47-6.77C188.56,260.7,187.19,258.87,184.99,257.37z"/>
		<path style="fill:#F9EBEB;" d="M206.4,233.42l-14.12-12.16l-0.01-0.1l-20.91-18.16c-2.09-1.81-4.11-2.19-5.45-2.19
			c-1.67,0-4.17,0.59-6.6,3.38c-1.76,2.03-2.63,4.17-2.57,6.37c0.04,1.62,0.63,4.01,3.21,6.25l7.28,6.22
			c2.45,2.06,4.43,3.74,5.91,5.03l21.66,19.12c1.76,1.53,3.67,2.3,5.68,2.3c1.71,0,4.28-0.6,6.76-3.46c1.82-2.1,2.66-4.33,2.47-6.63
			C209.59,237.82,208.91,235.52,206.4,233.42z"/>
		<path style="fill:#F9EBEB;" d="M216.48,171.28l6.46-5.81c2.46-2.21,3.05-4.51,3.12-6.06c0.1-2.22-0.75-4.34-2.52-6.3
			c-2.13-2.37-4.41-2.87-5.95-2.87c-2.03,0-3.99,0.83-5.83,2.49l-18.82,17.14l-7.62,6.74l-0.09,0.09c-3.68,3.45-3.9,8.08-0.56,11.79
			c2.33,2.6,4.73,3.14,6.33,3.14c1.36,0,3.41-0.4,5.51-2.29l6.15-5.53c0.29-0.26,0.56-0.51,0.83-0.75l5.56,6.03l19.4,21.81
			c2.39,2.76,4.89,3.34,6.57,3.34c2.06,0,4.03-0.82,5.84-2.45c4.19-3.77,4.48-8.88,0.71-13.07
			C228.63,184.62,220.2,175.4,216.48,171.28z"/>
		<path style="fill:#F9EBEB;" d="M269.66,132l7.27-4.77c2.76-1.81,3.7-4,4-5.52c0.43-2.18-0.09-4.4-1.54-6.61
			c-2.18-3.32-5.04-3.82-6.55-3.82c-1.66,0-3.34,0.55-5.03,1.66l-21.2,14.09l-8.55,5.51l-0.11,0.07c-4.16,2.85-5.08,7.4-2.34,11.57
			c2.25,3.43,4.98,4.14,6.88,4.14c1.59,0,3.17-0.51,4.69-1.51l6.91-4.53c0.32-0.21,0.63-0.42,0.94-0.62l4.58,6.8l15.88,24.5
			c2.4,3.81,5.5,4.38,7.13,4.38c1.67,0,3.36-0.55,5-1.63c4.71-3.09,5.77-8.1,2.68-12.81C279.64,147.01,272.7,136.61,269.66,132z"/>
		<path style="fill:#F9EBEB;" d="M346.95,125.15c-1.29,0-2.63,0.32-3.99,0.95l-10.28,5.22l-0.11,0.06c-0.44,0.24-1.34,0.7-3.2,1.56
			l-8.79-19.11l-6.85-15.31l-0.06-0.14c-2.13-4.36-5.52-5.01-7.35-5.01c-1.31,0-2.67,0.32-4.05,0.96c-5,2.32-6.87,6.73-4.88,11.5
			l9.65,20.6c0.57,1.22,1.2,2.65,1.94,4.37c0.27,0.73,0.62,1.53,1.03,2.41l6.15,13.8l0.23,0.45c1.85,3.15,4.19,4.91,7.01,5.25
			c0.26,0.03,0.53,0.04,0.81,0.04c2,0,4.41-0.75,7.57-2.35l4.69-2.35l13.54-6.2c4.76-2.21,6.34-6.85,4.03-11.83
			C352.6,126.93,350.01,125.15,346.95,125.15z"/>
		<path style="fill:#F9EBEB;" d="M400.76,107.37c-0.84,0-1.73,0.14-2.62,0.4l-3.27,1.15l-10.66,3.29c-0.99,0.31-1.9,0.6-2.74,0.86
			l-1.75-5.97l3.46-1.04c0.32-0.1,0.61-0.21,0.88-0.35l7.63-2.29c2.41-0.73,4.18-1.99,5.26-3.77c0.8-1.32,1.56-3.54,0.67-6.52
			c-1.04-3.72-3.93-5.95-7.74-5.95c-1.14,0-2.32,0.19-3.7,0.6l-10.93,3.46l-2-6.78l8.96-2.69c3.86-1.16,6.42-1.96,7.83-2.44
			l0.43-0.15l0.39-0.23c2.66-1.56,4.89-4.94,3.22-9.8c-1.1-3.52-3.88-5.62-7.46-5.62c-1.02,0-2.11,0.17-3.3,0.53l-7.16,2.23
			c-1.86,0.56-3.61,1.11-5.21,1.65l-9.72,2.84c-6.81,2.05-8.25,6.95-7.32,10.86l5.55,18.78c0.82,2.72,1.64,5.54,2.46,8.47
			c0.66,2.2,1.32,4.48,1.96,6.8l2.66,9.41l0.09,0.28c1.56,4.4,4.22,5.86,6.23,6.33c0.56,0.12,1.16,0.18,1.82,0.18
			c1.75,0,3.97-0.42,6.99-1.33l8.07-2.42l0.3-0.01l8.09-2.43c1.54-0.46,2.93-0.91,4.15-1.33c5.09-1.66,7.42-5.92,5.93-10.88
			C407.06,109.67,404.28,107.37,400.76,107.37z"/>
		<path style="fill:#F9EBEB;" d="M491.71,76.96c-1.83-1.2-4.1-2.23-6.75-3.06l-0.15-0.04c-2.04-0.57-4.51-1.09-7.29-1.53l-3.97-0.69
			c-1.13-0.27-2.04-0.54-2.72-0.8c-0.77-0.35-0.78-0.55-0.8-0.84c-0.04-0.74,0.13-1.4,1.13-2.29c1.04-0.94,2.38-1.45,4.09-1.55
			c1.39-0.08,2.75-0.01,3.98,0.2c1.05,0.19,2.1,0.49,3.13,0.89l1.13,0.35c0.51,0.18,0.98,0.31,1.43,0.39
			c1.2,0.31,2.27,0.42,3.21,0.37c3.18-0.19,5.01-1.61,5.99-2.78c1.35-1.62,1.97-3.72,1.82-6.24c-0.2-3.5-2.25-6.31-5.63-7.72
			c-4.69-1.92-10-2.73-15.78-2.39c-6.2,0.36-11.52,2.61-15.8,6.66c-4.67,4.39-6.87,9.67-6.52,15.7c0.33,5.64,3.05,10.15,7.87,13.04
			c1.9,1.19,4.18,2.16,6.85,2.9c1.97,0.52,4.32,0.98,7.05,1.4c3.87,0.53,5.57,1.25,6.25,1.63l0.14,0.08
			c1.18,0.61,1.21,1.11,1.23,1.55c0.06,1.06-0.22,1.72-1.05,2.4l-0.09,0.08c-1.04,0.91-2.6,1.43-4.63,1.55
			c-1.56,0.09-3.17-0.07-4.88-0.49c-1.19-0.28-2.55-0.75-4.04-1.39l-2.3-0.67l-0.11-0.03c-1.14-0.28-2.24-0.38-3.25-0.33
			c-5.09,0.3-8.18,3.99-7.86,9.42c0.12,2.03,1.08,5.78,6.22,8.05c2.18,0.94,4.74,1.64,7.6,2.08c2.47,0.43,4.94,0.65,7.36,0.65
			c0.78,0,1.57-0.02,2.38-0.07c6.71-0.45,12.21-2.69,16.33-6.62c4.47-4.22,6.55-9.6,6.17-15.99
			C499.08,84.8,496.41,80.01,491.71,76.96z"/>
		<path style="fill:#F9EBEB;" d="M528.81,49.72c-0.29-0.02-0.58-0.03-0.86-0.03c-5.1,0-8.47,3.12-8.78,8.19l-0.52,9.56
			c-0.15,3.2-0.28,5.8-0.41,7.75l-2.05,28.82c-0.21,3.34,1.08,5.42,2.19,6.58c1.51,1.56,3.62,2.44,6.28,2.61
			c0.28,0.02,0.55,0.03,0.82,0.03c5.04,0,8.45-3.3,8.67-8.34l1.09-18.6l0.08-0.07l1.74-27.65
			C537.38,53.53,534.14,50.06,528.81,49.72z"/>
		<path style="fill:#F9EBEB;" d="M599.69,62.62c-4.08-3-9.04-5.06-14.74-6.14c-6.08-1.14-11.84-0.24-16.94,2.65
			c-5.6,3.13-9,7.73-10.12,13.66c-1.04,5.55,0.5,10.58,4.48,14.55c1.55,1.61,3.53,3.1,5.94,4.46c1.79,0.98,3.96,2,6.5,3.06
			c3.62,1.45,5.11,2.56,5.67,3.09l0.12,0.11c1,0.88,0.9,1.37,0.82,1.8c-0.2,1.05-0.63,1.61-1.6,2.08l-0.11,0.05
			c-1.24,0.64-2.86,0.76-4.86,0.39c-1.53-0.29-3.07-0.84-4.62-1.65c-1.09-0.56-2.3-1.34-3.59-2.32l-0.26-0.19l-1.91-1.06
			c-1.03-0.54-2.07-0.91-3.08-1.1c-0.63-0.12-1.26-0.18-1.85-0.18c-4.17,0-7.18,2.78-8.05,7.42c-0.38,2-0.35,5.87,4.09,9.31
			c1.89,1.44,4.2,2.73,6.87,3.85c3.03,1.34,6.15,2.32,9.31,2.91c1.93,0.34,3.83,0.52,5.63,0.52c4.35,0,8.34-1.01,11.82-3
			c5.35-3.02,8.67-7.74,9.85-14.03c1.11-5.91-0.33-11.21-4.15-15.3c-1.48-1.6-3.44-3.15-5.81-4.6l-0.13-0.08
			c-1.84-1.04-4.12-2.15-6.7-3.25l-3.69-1.63c-1.03-0.53-1.85-1.02-2.44-1.44c-0.66-0.52-0.62-0.72-0.57-1.01
			c0.14-0.72,0.46-1.33,1.65-1.95c1.25-0.67,2.66-0.83,4.34-0.52c1.37,0.26,2.66,0.65,3.81,1.16c0.97,0.44,1.92,0.98,2.82,1.62
			l1.01,0.61c0.45,0.3,0.88,0.53,1.29,0.72c1.08,0.58,2.07,0.95,3.02,1.13c0.65,0.12,1.28,0.18,1.89,0.18
			c3.16,0,6.88-1.85,7.86-7.05C603.94,68.02,602.63,64.8,599.69,62.62z"/>
		<path style="fill:#F9EBEB;" d="M671.54,90.82c1.04-2.96,0.41-5.18-0.3-6.52c-0.97-1.82-2.65-3.16-5.02-3.99l-24.07-8.28
			l-9.57-3.45l-0.12-0.04c-1.07-0.35-2.12-0.53-3.12-0.53c-3.49,0-6.23,2.08-7.5,5.7c-0.83,2.37-0.84,4.54-0.01,6.45
			c0.6,1.4,1.95,3.3,4.95,4.35l7.8,2.74c0.36,0.13,0.72,0.25,1.06,0.37l-2.62,7.77l-9.82,27.49c-0.95,2.56-0.95,4.9,0.02,6.95
			c0.65,1.39,2.08,3.27,5.16,4.36c1.27,0.44,2.5,0.67,3.66,0.67c3.77,0,6.74-2.29,8.15-6.31c6.16-18.15,10.2-29.98,12.02-35.19
			l8.2,2.88c1.16,0.41,2.29,0.61,3.36,0.61C665.46,96.85,669.63,96.26,671.54,90.82z M632.03,130.35L632.03,130.35L632.03,130.35
			L632.03,130.35z"/>
		<path style="fill:#F9EBEB;" d="M723.44,107.98l-6.66-3.45c-1.71-0.91-3.35-1.75-4.86-2.49l-8.9-4.82c-2.02-1.07-3.88-1.6-5.67-1.6
			c-2.99,0-5.54,1.48-7.17,4.16l-9.26,17.25c-1.33,2.51-2.74,5.1-4.21,7.76c-1.09,2.05-2.23,4.13-3.39,6.22l-4.73,8.56l-0.13,0.26
			c-1.98,4.23-1.12,7.13-0.02,8.88c1.14,1.74,3.25,3.35,7.07,5.38l7.5,3.98c0.23,0.18,0.48,0.35,0.75,0.49l6.88,3.65
			c1.42,0.75,2.73,1.42,3.88,1.97c1.56,0.78,3.09,1.18,4.55,1.18c1.79,0,5.12-0.62,7.31-4.74c2.39-4.5,1.17-8.89-3.12-11.17
			l-3.13-1.48l-9.89-5.16c-0.92-0.47-1.78-0.91-2.55-1.32l2.95-5.47l3.2,1.7c0.28,0.15,0.57,0.27,0.87,0.37l7.04,3.74
			c1.55,0.83,3.09,1.24,4.55,1.24c2.9,0,5.43-1.63,6.89-4.39c1.43-2.57,1.24-4.78,0.83-6.18c-0.67-2.28-2.4-4.18-5.2-5.66
			l-10.21-5.23l3.35-6.23l8.26,4.39c3.55,1.89,5.93,3.12,7.28,3.77l0.41,0.2l0.44,0.11c0.68,0.17,1.36,0.26,2.03,0.26
			c1.79,0,5.08-0.65,7.16-4.96C729.21,115.87,729.16,111.02,723.44,107.98z"/>
		<path style="fill:#F9EBEB;" d="M779.34,153.09c-1.11-5.32-4.24-10.09-9.25-14.13c-0.81-0.67-1.69-1.37-2.63-2.07l-2.29-1.71
			c-1.01-0.75-2.08-1.51-3.14-2.23l-2.65-1.87c-2.39-1.64-4.73-2.47-6.95-2.47c-2.02,0-4.93,0.68-7.38,3.97l-4.62,6.48l-10.69,14.51
			l-4.84,6.51c-1.88,2.44-3.9,5.07-6.06,7.88c-2.15,2.8-2.32,5.32-2.08,6.94c0.35,2.41,1.76,4.52,4.19,6.27l0.1,0.07
			c1.51,1.03,3.11,1.55,4.74,1.55c1.88,0,4.66-0.71,7.21-4.14l6.41-8.71l2.44,1.81c-0.02,1.03-0.06,2.11-0.1,3.2l-0.72,16.23
			l0.01,0.22c0.22,4.23,2.06,6.4,3.61,7.49c1.9,1.4,3.83,2.1,5.74,2.1c2.55,0,4.89-1.27,6.6-3.57c1.13-1.52,1.7-3.46,1.69-5.77
			l-0.02-9.36l0.05-4.27c6.54,0.34,12.14-2.56,16.61-8.58C779.12,164.32,780.48,158.83,779.34,153.09z M762.34,155.57
			c0.13,0.92-0.3,2.03-1.31,3.35c-1.42,1.91-2.61,2.16-3.48,2.16l-0.2,0c-1.51-0.01-3.31-0.78-5.36-2.31l-2.78-2.07l6.05-8.21
			c1.09,0.78,2.18,1.58,3.28,2.4C760.8,152.57,762.15,154.24,762.34,155.57z"/>
		<path style="fill:#F9EBEB;" d="M839.22,202.51c-2.51-2.85-5.08-3.45-6.79-3.45c-2.04,0-3.98,0.79-5.79,2.38l-7.14,6.38
			c-2.37,2.15-4.31,3.89-5.78,5.18l-21.87,18.89c-3.94,3.46-4.15,8.36-0.53,12.48c2.44,2.77,4.96,3.36,6.66,3.36
			c2.12,0,4.13-0.85,5.93-2.5l13.95-12.35l0.1,0.01l20.81-18.28C842.57,211.27,842.75,206.52,839.22,202.51z"/>
		<path style="fill:#F9EBEB;" d="M880.12,261.84c-0.76-5.01-2.79-9.98-6.06-14.77c-3.49-5.13-8.15-8.54-13.83-10.13
			c-6.12-1.74-11.88-0.89-16.82,2.48c-4.67,3.18-7.14,7.83-7.14,13.45c-0.05,2.24,0.29,4.69,1.03,7.36
			c0.57,1.96,1.38,4.22,2.42,6.77c1.53,3.59,1.79,5.42,1.81,6.2l0.01,0.16c0.08,1.33-0.33,1.61-0.69,1.85
			c-0.71,0.49-1.21,0.54-1.53,0.54c-0.32,0-0.68-0.07-1.08-0.21l-0.11-0.04c-1.31-0.42-2.56-1.49-3.71-3.17
			c-0.88-1.29-1.57-2.76-2.09-4.44c-0.37-1.17-0.67-2.57-0.89-4.18l-0.04-0.32l-0.6-2.11c-0.35-1.11-0.81-2.11-1.39-2.95
			c-2.24-3.29-5.13-3.78-6.66-3.78c-1.8,0-3.64,0.63-5.47,1.88c-1.68,1.15-4.4,3.9-3.71,9.47c0.32,2.37,1.04,4.93,2.11,7.54
			c1.19,3.11,2.71,6.03,4.53,8.7c3.84,5.52,8.58,9.1,14.07,10.6c1.83,0.52,3.67,0.78,5.48,0.78c3.97,0,7.81-1.24,11.41-3.7
			c4.97-3.38,7.71-8.14,7.91-13.74c0.09-2.18-0.2-4.66-0.84-7.36l-0.04-0.15c-0.56-2.04-1.38-4.43-2.43-7.04l-1.45-3.77
			c-0.35-1.11-0.59-2.03-0.71-2.75c-0.1-0.84,0.07-0.95,0.32-1.12c0.75-0.51,1.38-0.57,2.54-0.2c1.34,0.41,2.47,1.3,3.43,2.71
			c0.78,1.15,1.42,2.34,1.87,3.51c0.38,1,0.66,2.06,0.85,3.14l0.28,1.14c0.11,0.53,0.24,1,0.4,1.43c0.35,1.18,0.79,2.15,1.33,2.94
			c2.25,3.31,5.11,3.8,6.62,3.8c1.71,0,3.44-0.58,5.13-1.74C879.29,268.67,880.65,265.47,880.12,261.84z"/>
	</g>
	<g>
		<path style="fill:#F9EBEB;" d="M222.78,785.89c2.83-1.77,3.7-3.94,3.93-5.45c0.35-2.32-0.48-4.68-2.48-7
			c-1.61-1.87-3.73-2.85-6.13-2.85c-1.94,0-3.95,0.64-6.14,1.93l-7.61,4.47l-8.99,5.1l9.56-16.16c2.2-3.42,1.91-7.18-0.8-10.33
			c-2.84-3.3-6.98-4.17-11.43-2.23l-16.18,7.14l13.24-16.82c2.71-3.36,2.6-7.37-0.29-10.72c-1.94-2.24-4.09-3.38-6.41-3.38
			c-1.58,0-3.94,0.57-6.21,3.28l-0.09,0.11c-1.99,2.56-4.08,5.23-6.29,8.05c-1.99,2.55-4.08,5.23-6.3,8.07l-14.92,19.48l-0.07,0.09
			c-0.98,1.37-1.68,2.55-2.12,3.6l-0.07,0.18c-1.12,3.11-0.57,6.33,1.6,9.11c1.56,1.95,3.76,3.09,6.36,3.28
			c1.81,0.13,3.71-0.21,5.61-1.03l16.64-6.67l4.09-1.74l-6.45,11.08c-1.76,3.05-3.4,5.82-4.85,8.23c-1.11,1.82-1.74,3.43-1.93,4.94
			c-0.37,2.52,0.36,4.92,2.12,6.96l0.08,0.09c1.92,2.09,4.08,3.16,6.42,3.19l0.14,0l0.14-0.01c1.45-0.08,3.11-0.61,5.22-1.67
			L222.59,786L222.78,785.89z"/>
		<path style="fill:#F9EBEB;" d="M257.41,802.27c-3.16-2.53-6.78-2.96-10.28-1.02c-2.9,1.67-5.77,3.29-8.51,4.8l-0.09,0.05
			c-2.01,1.17-4.15,2.38-6.44,3.62l-7.78,4.39l-17.48,9.27c-2.46,1.2-4.11,2.39-5.19,3.75c-2.06,2.56-2.08,4.98-1.74,6.56
			c0.43,1.98,1.68,3.83,3.73,5.47c1.34,1.07,2.96,1.64,4.7,1.64c1.67,0,3.38-0.5,5.33-1.57l7.19-4.19l10.13,8.13
			c0.87,0.69,1.63,1.31,2.29,1.86c-0.55,1.68-1.39,4.33-2.72,8.61l-0.04,0.14c-1.02,3.73-0.01,7.05,2.82,9.32
			c2.02,1.62,4.04,2.45,6.01,2.45c1.54,0,3.78-0.5,5.69-2.88c0.88-1.1,1.55-2.51,1.98-4.14c1.07-3.99,2.66-9.42,4.71-16.14
			c0.17-0.47,0.32-1.05,0.47-1.75l0.26-1.07c0.56-1.94,1.3-4.32,2.21-7.1l2.4-7.56c0.91-2.88,1.63-5.23,2.13-7
			c0.72-2.23,1.28-4.09,1.67-5.52C262.05,808.68,260.8,804.99,257.41,802.27z M238.48,829.91l-2.83-2.19l-1.12-0.9l6-3.52
			c0.11-0.06,0.22-0.13,0.32-0.19L238.48,829.91z"/>
		<path style="fill:#F9EBEB;" d="M327.4,850.2c-0.58-1.84-1.92-3.37-3.98-4.55l-22.18-12.49l-8.79-5.12l-0.1-0.06
			c-1.41-0.77-2.82-1.16-4.18-1.16c-1.55,0-4.46,0.54-6.52,4.14c-2.43,4.25-1.36,8.5,2.72,10.83l7.18,4.1
			c0.49,0.28,0.96,0.54,1.41,0.8l-4.22,7.61l-14.63,25.27c-1.33,2.23-1.73,4.4-1.18,6.46c0.37,1.39,1.37,3.37,4.06,4.91
			c1.62,0.93,3.23,1.4,4.78,1.4c1.69,0,4.86-0.6,7.16-4.63c9.61-17.24,15.81-28.3,18.43-32.88l7.98,4.56
			c1.48,0.85,2.97,1.28,4.42,1.28c1.61,0,4.64-0.57,6.83-4.4C328.03,853.7,327.83,851.55,327.4,850.2z"/>
		<path style="fill:#F9EBEB;" d="M367.17,863.92c-7.28-2.85-14.9-2.58-22.42,0.78c-3.75,1.68-7.13,4.09-10.03,7.15
			c-3.09,3.23-5.55,7.13-7.32,11.6c-3.3,8.48-3.19,16.61,0.32,24.15c3.22,6.99,8.51,11.99,15.72,14.88
			c4.04,1.6,8.14,2.41,12.21,2.41c0.47,0,0.94-0.01,1.41-0.03c2.17-0.1,8.77-0.41,10.72-5.53c0.86-2.26,1.04-4.31,0.52-6.09
			c-0.62-2.13-2.2-3.77-4.45-4.63c-1.12-0.43-2.3-0.61-3.52-0.54l-1.7,0.21l-0.18-0.01l-0.44,0.08c-2.74,0.48-5.27,0.23-7.88-0.81
			c-3.31-1.26-5.61-3.57-7.02-6.99c-1.45-3.68-1.42-7.4,0.09-11.34c1.78-4.54,4.46-7.68,8.25-9.65c1.99-1.06,3.93-1.6,5.76-1.6
			c1.22,0,2.4,0.22,3.61,0.69c1.33,0.51,2.57,1.14,3.71,1.89c0.83,0.6,1.68,1.33,2.51,2.14l0.55,0.56c0.37,0.44,0.78,0.81,1.23,1.12
			c0.8,0.63,1.65,1.12,2.46,1.43c1.07,0.44,2.14,0.66,3.17,0.66c1.84,0,5.21-0.72,7.17-5.58c0.86-2.26,1.04-5.81-3.08-9.88
			C375.65,868.21,371.85,865.84,367.17,863.92z"/>
		<path style="fill:#F9EBEB;" d="M439.57,883.11c-5.08-1.03-8.92,1.52-10.02,6.53l-3.08,15.58l-17.04-3.31l3.25-16.42
			c0.46-2.3-0.03-4.46-1.4-6.09c-1.18-1.41-2.95-2.36-5.26-2.82c-5.31-1.07-9.14,1.38-10.13,6.24l-3.3,17.93
			c-0.38,2.12-0.81,4.41-1.29,6.8c-0.44,1.91-0.95,4.29-1.5,7.01l-2.98,13.96c-0.93,4.61,1.69,8.23,6.67,9.24
			c0.89,0.18,1.74,0.27,2.52,0.27c3.94,0,6.75-2.26,7.52-6.09l2.77-14.33l16.94,3.31l-2.81,14.22c-0.95,4.7,1.69,8.4,6.72,9.41
			c0.84,0.17,1.65,0.25,2.4,0.25c3.97,0,6.81-2.35,7.62-6.34l4.23-22.56c1.03-4.81,1.85-8.77,2.53-12.1l2.2-10.91
			C447.14,887.96,444.56,884.12,439.57,883.11z"/>
		<path style="fill:#F9EBEB;" d="M474.6,886.59c-0.29-0.02-0.58-0.03-0.85-0.03c-4.8,0-7.97,2.94-8.28,7.7l-0.54,9.55
			c-0.16,3.2-0.3,5.8-0.42,7.76l-2.11,28.81c-0.32,5.01,2.74,8.33,7.99,8.67c0.28,0.02,0.55,0.03,0.81,0.03
			c4.81,0,7.94-3.03,8.17-7.85l1.15-18.81l0.08-0.07l1.78-27.43c0.2-3.06-1-4.95-2.03-6C478.96,887.53,477.03,886.75,474.6,886.59z"
			/>
		<path style="fill:#F9EBEB;" d="M555.79,923.8c-0.04-0.54-0.1-1.14-0.2-1.81l-1.85-28c-0.43-6.29-4.47-8.53-8.1-8.53
			c-0.23,0-0.47,0.01-0.71,0.03c-3.16,0.22-4.99,1.64-5.97,2.79c-1.55,1.83-2.18,4.34-1.88,7.37l1.36,17.4
			c0.07,1.08,0.16,2.19,0.24,3.33l-19.15-23.5c-1.26-1.52-2.36-2.62-3.36-3.35l-0.14-0.1c-1.75-1.17-3.7-1.71-5.75-1.56
			c-2.68,0.18-4.72,0.91-6.25,2.22c-1.77,1.52-2.66,3.75-2.51,6.28c0.04,1.33,0.15,2.96,0.33,4.83l2.79,41.66
			c0.4,4.51,3.55,7.32,8.22,7.32c0.29,0,0.6-0.01,0.91-0.03c3.26-0.22,5.06-1.78,6-3.05c1.23-1.65,1.76-3.81,1.57-6.46l-1.74-22.34
			l6.69,8.22l12.94,16.21c2.92,3.55,5.92,5.18,9.02,4.96c6.8-0.47,8.93-4.87,8.66-8.85L555.79,923.8z"/>
		<path style="fill:#F9EBEB;" d="M622.9,894.4c-0.83,0-1.7,0.11-2.59,0.34l-12.11,3.04c-4.48,1.23-6.66,4.91-5.54,9.36
			c1.1,4.38,4.6,6.69,9,5.8l4.25-1.06c-0.17,1.3-0.57,2.54-1.21,3.75c-1.4,2.66-3.49,4.26-6.57,5.03
			c-4.14,1.04-7.61,0.58-10.68-1.46c-3.23-2.14-5.42-5.64-6.69-10.7c-1.04-4.13-0.48-7.96,1.71-11.73c2.05-3.53,4.7-5.67,8.11-6.52
			c1.5-0.38,2.95-0.57,4.31-0.57c0.25,0,0.5,0.01,0.81,0.02c1.17,0.04,2.37,0.25,3.56,0.62l0.24,0.07c0.98,0.24,1.79,0.41,2.48,0.51
			c1.39,0.25,2.71,0.23,3.91-0.07c4.51-1.13,6.64-4.99,5.43-9.83c-0.48-1.92-1.97-4.48-6.27-5.78c-2.51-0.8-5.21-1.29-8.03-1.45
			l-0.1,0c-3.28-0.1-6.59,0.27-9.86,1.09c-8.12,2.04-14.47,6.76-18.88,14.05c-4.53,7.49-5.74,15.64-3.58,24.24
			c2.24,8.91,6.88,15.63,13.78,19.97c4.65,2.92,9.72,4.4,15.04,4.4c2.53,0,5.15-0.34,7.8-1c8.1-2.03,14.11-6.36,17.85-12.87
			c3.59-6.26,4.44-13.43,2.51-21.36C629.79,895.17,624.91,894.4,622.9,894.4z"/>
		<path style="fill:#F9EBEB;" d="M710.84,870.06l2.46-29.74c0.22-2.21-0.1-4.12-0.94-5.67c-1.99-3.65-4.98-4.19-6.58-4.19
			c-1.47,0-3.03,0.44-4.61,1.31c-1.48,0.81-4.01,2.84-4.28,7.39l-1.14,20.39l-17.86-10.04c-3-1.6-5.91-1.73-8.3-0.43
			c-2.26,1.23-3.75,2.84-4.44,4.79c-0.51,1.45-0.8,3.76,0.74,6.58c0.79,1.44,2.14,2.63,4.22,3.72l26.1,14.04l7.42,13.91
			c2.13,3.91,5.23,4.49,6.89,4.49c1.45,0,2.97-0.42,4.5-1.26c4.51-2.46,5.97-6.71,3.72-10.84L710.84,870.06z"/>
		<path style="fill:#F9EBEB;" d="M790.49,794.71c-0.16-0.44-0.38-0.88-0.66-1.35c-0.15-0.25-0.27-0.46-0.37-0.64l-0.06-0.11
			c-0.78-1.35-1.66-2.57-2.61-3.63c-0.9-1-1.85-1.9-2.82-2.68l-0.52-0.36c-1.93-1.1-3.79-1.92-5.52-2.45
			c-1.65-0.5-3.42-0.76-5.25-0.76c-0.25,0-0.5,0-0.68,0.01c-1.9,0.04-3.85,0.29-5.79,0.76c-2,0.49-3.96,1.26-5.82,2.29l-0.11,0.06
			c-1.17,0.7-4.26,3.14-5.75,5.12c-0.64,0.85-2.52,3.64-3.46,6.26c-0.94,2.62-1.04,4.49-0.98,8.2c-2.63-0.18-5.1-0.1-7.38,0.22
			c-2.67,0.38-5.23,1.28-7.66,2.67c-1.06,0.62-2.02,1.29-2.87,1.99l-0.18,0.15c-0.87,0.8-1.65,1.69-2.32,2.65
			c-0.57,0.81-1.15,1.81-1.8,3.04c-1.1,1.56-1.81,3.41-2.12,5.5c-0.24,1.64-0.44,3.44-0.58,5.35l-0.03,0.37l0.04,0.37
			c0.18,1.64,0.48,3.25,0.88,4.78c0.44,1.66,1.07,3.26,1.89,4.77l0.07,0.12c1.24,2.11,2.73,3.95,4.42,5.45
			c1.61,1.42,3.56,2.77,5.84,4.02c3.08,1.66,6.57,3.02,10.38,4.04c3.79,1.02,7.79,1.62,11.91,1.78l0.93,0.01
			c3.69,0,7.41-0.24,11.06-0.7c4.34-0.55,8.21-1.67,11.84-3.42c2.29-1.1,3.38-2.56,3.65-2.96c0.95-1.4,1.87-3.05,2.72-4.91
			c0.84-1.82,1.6-3.85,2.26-6.01c0.67-2.22,1.17-4.58,1.47-7.01c0.29-2.32,0.45-4.7,0.49-7.1c0.29-5.09,0.04-9.91-0.74-14.33
			C793.49,801.88,792.22,797.99,790.49,794.71z M761.48,835.07l-3.3-0.2c-1.62-0.22-3.2-0.49-4.72-0.82
			c-2.27-0.49-4.23-1.25-5.83-2.28l-0.44-0.25c-0.63-0.3-1.26-0.69-1.88-1.16c-0.6-0.46-1.2-0.96-1.79-1.49
			c-0.06-0.12-0.14-0.26-0.22-0.42l-0.06-0.11c-0.05-0.08-0.17-0.33-0.28-0.85c-0.11-0.46-0.17-0.95-0.21-1.44
			c0.07-1.33,0.3-1.99,0.43-2.27c0.13-0.06,0.29-0.13,0.49-0.22c0.33-0.15,0.52-0.18,0.59-0.18l0.54-0.05l0.5-0.19
			c0.1-0.04,0.41-0.13,1.04-0.17c0.62-0.03,1.1,0.02,1.32,0.06l0.15,0.03c2.01,0.34,3.91,0.74,5.62,1.19
			c1.22,0.32,2.22,0.84,3.07,1.6l0,0c0.78,0.74,1.75,1.27,2.84,1.53c0.92,0.23,1.87,0.3,2.85,0.23c0.91-0.07,1.84-0.26,2.73-0.58
			c1.03-0.36,2-0.91,2.89-1.65c1.33-1.09,2.28-2.59,2.82-4.46c0.57-1.96,0.42-4.02-0.44-5.96c-0.61-1.48-1.13-3.06-1.53-4.69
			c-0.42-1.68-0.72-3.29-0.89-4.77c-0.15-1.27-0.14-2.43,0.03-3.45c0.05-0.29,0.12-0.54,0.2-0.74c0.29-0.09,0.61-0.18,0.97-0.29
			c0.56-0.16,1.13-0.32,1.72-0.48c0.24-0.06,0.47-0.12,0.67-0.18c0.56,0.14,1.08,0.37,1.57,0.7c0.61,0.41,1.15,0.94,1.63,1.62
			c0.28,0.92,0.59,2.02,0.91,3.29c0.38,1.45,0.69,3.03,0.95,4.68c0.26,1.71,0.48,3.49,0.64,5.28c0.16,1.76,0.27,3.46,0.33,5.06
			c-0.05,1.51-0.18,3.08-0.39,4.67c-0.2,1.56-0.42,2.64-0.76,3.71c-0.1,0.33-0.2,0.66-0.3,1.01c-0.21,0.73-0.42,1.42-0.68,2.08
			c-0.2,0.49-0.38,0.95-0.56,1.39c-1.63,0.47-3.38,0.81-5.23,1.02C766.87,835.16,764.19,835.23,761.48,835.07z"/>
		<path style="fill:#F9EBEB;" d="M854.06,765.54c-1.1-6.67-5.02-12.81-11.69-18.28l-19.19-15.54c-2.01-1.65-4.06-2.48-6.1-2.48
			c-1.65,0-4.07,0.55-6.24,3.19c-3.33,4.07-2.97,8.59,0.96,11.82l16.3,13.17c1.84,1.51,3.47,2.88,4.89,4.11
			c2.55,2.15,4.03,4.42,4.54,6.99c0.48,2.35-0.03,4.35-1.61,6.28c-2.02,2.46-4.03,3.66-6.15,3.66c-2.17,0-4.72-1.19-7.59-3.54
			L807,762.46c-2.02-1.66-3.9-3.24-5.67-4.75c-1.77-1.45-3.64-2.19-5.55-2.19c-1.68,0-4.18,0.6-6.51,3.44
			c-2,2.43-2.21,4.68-2.04,6.14c0.24,2.06,1.35,3.92,3.29,5.51l21.04,17.36c5.8,4.76,11.79,7.17,17.8,7.17
			c0.54,0,1.08-0.02,1.64-0.06c6.52-0.51,12.26-3.73,17.06-9.58C853.19,779.27,855.2,772.55,854.06,765.54z"/>
	</g>
	<path style="fill:#F9EBEB;" d="M677.96,885.62c-2.82,0-5.51-1.59-6.79-4.31c-1.76-3.75-0.15-8.22,3.6-9.98
		c65.69-30.88,122.25-78.88,163.57-138.8c2.35-3.41,7.02-4.27,10.43-1.92c3.41,2.35,4.27,7.02,1.92,10.43
		c-42.82,62.1-101.45,111.85-169.54,143.86C680.12,885.39,679.03,885.62,677.96,885.62z"/>
	<path style="fill:#A0362D;" d="M98.91,471.85c-7.98,0-14.61,5.74-15.99,13.32c-1.39-7.58-8.02-13.32-16-13.32
		c-8.98,0-16.16,7.28-16.27,16.27c-0.27,22.55,32.26,40.03,32.26,40.03s32.53-17.49,32.26-40.03
		C115.07,479.13,107.89,471.85,98.91,471.85z"/>
	<path style="fill:#A0362D;" d="M933.08,471.85c-7.98,0-14.61,5.74-15.99,13.32c-1.39-7.58-8.02-13.32-16-13.32
		c-8.98,0-16.16,7.28-16.27,16.27c-0.27,22.55,32.26,40.03,32.26,40.03s32.53-17.49,32.26-40.03
		C949.24,479.13,942.07,471.85,933.08,471.85z"/>
	<g>
		<circle style="fill:#F9EBEB;" cx="887.06" cy="344.16" r="14.05"/>
		<circle style="fill:#F9EBEB;" cx="908.59" cy="415.73" r="14.05"/>
		<circle style="fill:#F9EBEB;" cx="912.11" cy="564.68" r="14.05"/>
		<circle style="fill:#F9EBEB;" cx="894.04" cy="637.21" r="14.05"/>
		<path style="fill:#F9EBEB;" d="M849.2,705.28c0-7.76,6.29-14.05,14.05-14.05c7.76,0,14.05,6.29,14.05,14.05
			c0,7.76-6.29,14.06-14.05,14.06C855.49,719.34,849.2,713.04,849.2,705.28z"/>
	</g>
	<g>
		<circle style="fill:#F9EBEB;" cx="112.94" cy="344.16" r="14.05"/>
		<circle style="fill:#F9EBEB;" cx="91.41" cy="415.73" r="14.05"/>
		<circle style="fill:#F9EBEB;" cx="87.89" cy="564.68" r="14.05"/>
		<circle style="fill:#F9EBEB;" cx="105.96" cy="637.21" r="14.05"/>
		<path style="fill:#F9EBEB;" d="M150.8,705.28c0-7.76-6.29-14.05-14.05-14.05c-7.76,0-14.05,6.29-14.05,14.05
			c0,7.76,6.29,14.06,14.05,14.06C144.51,719.34,150.8,713.04,150.8,705.28z"/>
	</g>
	<path style="fill:#F9EBEB;" d="M492.85,868.87c-5.8,0-10.99-2.86-14.08-7.41c-3.18,3.64-7.83,5.85-12.84,5.85
		c-6.18,0-11.76-3.41-14.74-8.53c-3.14,3.1-7.42,4.93-11.98,4.93c-6.69,0-12.58-3.94-15.35-9.67c-3.03,2.56-6.91,4.03-11.01,4.03
		c-7.22,0-13.41-4.51-15.89-10.87c-2.86,2.06-6.32,3.21-9.96,3.21c-7.68,0-14.2-5.11-16.32-12.11c-2.63,1.61-5.67,2.48-8.86,2.48
		c-8.15,0-14.98-5.74-16.66-13.39c-2.37,1.21-5,1.85-7.71,1.85c-8.6,0-15.73-6.39-16.89-14.67c-2.04,0.85-4.25,1.29-6.52,1.29
		c-9.04,0-16.46-7.07-17.02-15.97c-1.7,0.55-3.49,0.84-5.29,0.84c-9.4,0-17.05-7.65-17.05-17.06c0-0.07,0-0.14,0-0.22
		c-1.31,0.32-2.67,0.48-4.04,0.48c-9.4,0-17.05-7.65-17.05-17.06c0-0.51,0.02-1.02,0.07-1.52c-0.91,0.15-1.84,0.23-2.77,0.23
		c-9.4,0-17.05-7.65-17.05-17.05c0-0.94,0.08-1.88,0.23-2.8c-0.49,0.04-0.98,0.06-1.48,0.06c-9.4,0-17.06-7.65-17.06-17.06
		c0-1.39,0.17-2.76,0.49-4.08c-0.06,0-0.12,0-0.18,0c-9.4,0-17.05-7.65-17.05-17.05c0-1.82,0.29-3.62,0.86-5.33
		c-8.88-0.58-15.93-7.99-15.93-17.02c0-2.28,0.45-4.5,1.31-6.56c-8.26-1.18-14.63-8.3-14.63-16.88c0-2.72,0.65-5.37,1.87-7.74
		c-7.63-1.69-13.35-8.52-13.35-16.65c0-3.21,0.88-6.26,2.5-8.89c-6.98-2.14-12.07-8.64-12.07-16.31c0-3.65,1.16-7.13,3.23-9.99
		c-6.34-2.49-10.83-8.67-10.83-15.88c0-4.12,1.48-8.01,4.06-11.04c-5.71-2.78-9.64-8.66-9.64-15.34c0-4.58,1.84-8.87,4.96-12.01
		c-5.1-2.99-8.5-8.55-8.5-14.72c0-5.03,2.23-9.69,5.89-12.87c-4.53-3.1-7.38-8.27-7.38-14.05c0-5.49,2.65-10.52,6.88-13.67
		c-3.94-3.16-6.34-7.99-6.34-13.29c0-5.98,3.12-11.36,7.94-14.41c-3.37-3.15-5.37-7.6-5.37-12.43c0-6.5,3.63-12.2,9.07-15.08
		c-2.82-3.08-4.45-7.13-4.45-11.49c0-7.03,4.2-13.05,10.27-15.65c-2.31-2.96-3.62-6.64-3.62-10.47c0-7.46,4.81-13.81,11.49-16.12
		c-1.83-2.76-2.84-6.02-2.84-9.41c0-7.91,5.42-14.58,12.74-16.5c-1.39-2.5-2.15-5.35-2.15-8.29c0-8.37,6.06-15.35,14.02-16.78
		c-1.02-2.2-1.55-4.62-1.55-7.12c0-8.82,6.73-16.1,15.33-16.97c-0.7-1.88-1.06-3.88-1.06-5.91c0-9.26,7.42-16.82,16.62-17.05
		c-0.43-1.5-0.65-3.07-0.65-4.67c0-9.4,7.65-17.05,17.05-17.05c0.29,0,0.58,0.01,0.87,0.02c-0.23-1.11-0.34-2.25-0.34-3.4
		c0-9.4,7.65-17.06,17.06-17.06c0.72,0,1.45,0.05,2.16,0.14c-0.09-0.7-0.13-1.41-0.13-2.12c0-9.4,7.65-17.05,17.06-17.05
		c1.16,0,2.32,0.12,3.44,0.35c-0.01-0.28-0.02-0.55-0.02-0.83c0-9.4,7.65-17.06,17.05-17.06c1.61,0,3.19,0.22,4.71,0.66
		c0.25-9.19,7.8-16.58,17.05-16.58c2.05,0,4.06,0.37,5.95,1.08c0.89-8.58,8.16-15.29,16.96-15.29c2.52,0,4.94,0.54,7.16,1.57
		c1.45-7.94,8.42-13.98,16.78-13.98c2.96,0,5.82,0.76,8.33,2.17c1.93-7.3,8.59-12.7,16.49-12.7c3.4,0,6.68,1.02,9.45,2.87
		c2.32-6.66,8.67-11.45,16.11-11.45c3.85,0,7.54,1.33,10.51,3.65c2.62-6.06,8.62-10.24,15.64-10.24c4.37,0,8.44,1.63,11.52,4.47
		c2.88-5.42,8.58-9.03,15.06-9.03c4.84,0,9.3,2.01,12.46,5.4c3.06-4.8,8.43-7.91,14.39-7.91c5.32,0,10.15,2.42,13.31,6.37
		c3.15-4.21,8.17-6.85,13.65-6.85c5.8,0,10.98,2.86,14.08,7.41c3.17-3.64,7.83-5.85,12.84-5.85c6.18,0,11.76,3.41,14.74,8.53
		c3.14-3.1,7.42-4.93,11.98-4.93c6.69,0,12.58,3.94,15.35,9.67c3.03-2.56,6.91-4.03,11.02-4.03c7.22,0,13.41,4.51,15.89,10.87
		c2.86-2.06,6.32-3.21,9.96-3.21c7.68,0,14.2,5.11,16.32,12.11c2.63-1.61,5.67-2.48,8.86-2.48c8.15,0,14.98,5.74,16.66,13.39
		c2.37-1.2,5-1.85,7.71-1.85c8.59,0,15.72,6.39,16.89,14.67c2.04-0.85,4.25-1.29,6.52-1.29c9.04,0,16.46,7.07,17.02,15.97
		c1.7-0.56,3.49-0.84,5.29-0.84c9.4,0,17.05,7.65,17.05,17.06c0,0.07,0,0.15,0,0.22c1.31-0.32,2.67-0.48,4.04-0.48
		c9.4,0,17.05,7.65,17.05,17.05c0,0.51-0.02,1.02-0.07,1.52c0.91-0.15,1.84-0.23,2.76-0.23c9.41,0,17.06,7.65,17.06,17.06
		c0,0.94-0.08,1.88-0.24,2.8c0.49-0.04,0.98-0.06,1.48-0.06c9.4,0,17.05,7.65,17.05,17.05c0,1.39-0.17,2.76-0.49,4.08
		c9.5-0.12,17.23,7.59,17.23,17.05c0,1.82-0.29,3.62-0.86,5.33c8.89,0.58,15.94,7.99,15.94,17.02c0,2.28-0.45,4.5-1.31,6.56
		c8.26,1.18,14.63,8.3,14.63,16.88c0,2.72-0.65,5.37-1.87,7.74c7.63,1.69,13.35,8.52,13.35,16.65c0,3.2-0.88,6.26-2.5,8.89
		c6.98,2.14,12.07,8.64,12.07,16.31c0,3.65-1.16,7.13-3.23,9.99c6.34,2.49,10.83,8.67,10.83,15.88c0,4.12-1.48,8.01-4.06,11.04
		c5.71,2.78,9.64,8.66,9.64,15.34c0,4.57-1.83,8.85-4.93,11.98c5.13,2.96,8.47,8.47,8.47,14.75c0,5.03-2.23,9.69-5.88,12.87
		c4.53,3.1,7.38,8.27,7.38,14.06c0,5.49-2.65,10.52-6.88,13.67c3.94,3.16,6.34,7.99,6.34,13.29c0,5.98-3.12,11.36-7.94,14.41
		c3.37,3.15,5.37,7.6,5.37,12.43c0,6.5-3.63,12.2-9.07,15.08c2.82,3.08,4.45,7.13,4.45,11.49c0,7.03-4.19,13.05-10.27,15.65
		c2.3,2.96,3.62,6.64,3.62,10.48c0,7.46-4.81,13.81-11.49,16.12c1.83,2.76,2.84,6.02,2.84,9.41c0,7.91-5.42,14.58-12.74,16.5
		c1.39,2.5,2.15,5.35,2.15,8.29c0,8.37-6.06,15.35-14.02,16.78c1.02,2.2,1.55,4.62,1.55,7.12c0,8.82-6.73,16.1-15.33,16.97
		c0.7,1.88,1.06,3.87,1.06,5.91c0,9.26-7.42,16.82-16.62,17.05c0.43,1.5,0.65,3.07,0.65,4.67c0,9.4-7.65,17.06-17.05,17.06
		c-0.29,0-0.58-0.01-0.87-0.02c0.23,1.12,0.34,2.25,0.34,3.41c0,9.4-7.65,17.06-17.06,17.06c-0.72,0-1.45-0.05-2.16-0.14
		c0.09,0.7,0.13,1.41,0.13,2.12c0,9.4-7.65,17.05-17.05,17.05c-1.17,0-2.32-0.12-3.45-0.35c0.01,0.28,0.02,0.55,0.02,0.83
		c0,9.4-7.65,17.06-17.05,17.06c-1.61,0-3.19-0.22-4.71-0.66c-0.25,9.18-7.8,16.58-17.05,16.58c-2.05,0-4.06-0.37-5.95-1.08
		c-0.89,8.58-8.16,15.29-16.96,15.29c-2.52,0-4.94-0.54-7.16-1.57c-1.45,7.94-8.42,13.98-16.78,13.98c-2.96,0-5.82-0.76-8.33-2.17
		c-1.93,7.3-8.59,12.7-16.49,12.7c-3.4,0-6.68-1.02-9.45-2.87c-2.32,6.66-8.67,11.45-16.11,11.45c-3.85,0-7.54-1.33-10.51-3.65
		c-2.62,6.06-8.62,10.24-15.64,10.24c-4.37,0-8.44-1.63-11.52-4.47c-2.88,5.42-8.58,9.04-15.06,9.04c-4.84,0-9.3-2.01-12.46-5.4
		c-3.06,4.8-8.43,7.91-14.39,7.91c-5.32,0-10.15-2.42-13.32-6.37C503.35,866.23,498.33,868.87,492.85,868.87z M479.16,851.96
		c0.06,0,0.12,0,0.18,0c1.33,0.08,2.45,1.03,2.75,2.33c1.16,5.05,5.58,8.58,10.76,8.58c4.96,0,9.34-3.34,10.65-8.13
		c0.35-1.29,1.51-2.18,2.84-2.21c0.02,0,0.04,0,0.05,0c1.31,0,2.47,0.85,2.86,2.11c1.45,4.64,5.69,7.76,10.55,7.76
		c5.29,0,9.85-3.77,10.85-8.95c0.25-1.31,1.34-2.29,2.66-2.42c1.33-0.13,2.58,0.64,3.07,1.88c1.69,4.24,5.72,6.98,10.27,6.98
		c5.62,0,10.34-4.21,10.98-9.8c0.15-1.32,1.16-2.39,2.47-2.62c1.31-0.22,2.62,0.44,3.21,1.64c1.87,3.83,5.68,6.21,9.92,6.21
		c5.97,0,10.82-4.68,11.03-10.66c0.05-1.33,0.97-2.47,2.26-2.8c1.29-0.33,2.65,0.24,3.32,1.39c1.99,3.38,5.64,5.48,9.53,5.48
		c6.09,0,11.05-4.96,11.05-11.05l-0.03-0.44c-0.06-1.33,0.78-2.54,2.04-2.97c1.26-0.43,2.66,0.03,3.42,1.13
		c2.07,2.97,5.46,4.75,9.07,4.75c6.1,0,11.05-4.96,11.05-11.06c0-0.39-0.03-0.8-0.08-1.28c-0.15-1.32,0.58-2.58,1.81-3.1
		c1.23-0.52,2.65-0.17,3.49,0.86c2.11,2.57,5.23,4.04,8.55,4.04c6.09,0,11.05-4.96,11.05-11.05c0-0.7-0.07-1.41-0.21-2.13
		c-0.25-1.31,0.38-2.63,1.56-3.24c1.18-0.61,2.63-0.37,3.55,0.59c2.11,2.21,4.94,3.42,7.98,3.42c6.09,0,11.05-4.96,11.05-11.06
		c0-0.97-0.14-1.96-0.42-2.97c-0.35-1.28,0.18-2.65,1.31-3.35c1.13-0.7,2.59-0.57,3.58,0.32c2.04,1.83,4.66,2.84,7.38,2.84
		c6.09,0,11.05-4.96,11.05-11.05c0-1.27-0.23-2.53-0.67-3.76c-0.46-1.25-0.03-2.66,1.05-3.45c1.07-0.79,2.54-0.77,3.6,0.04
		c1.96,1.5,4.28,2.3,6.73,2.3c6.09,0,11.05-4.96,11.05-11.06c0-1.56-0.33-3.09-0.98-4.54c-0.55-1.21-0.22-2.64,0.79-3.51
		c1.01-0.87,2.48-0.96,3.59-0.23c1.8,1.18,3.88,1.8,6.03,1.8c6.09,0,11.05-4.96,11.05-11.05c0-1.84-0.46-3.66-1.33-5.27
		c-0.63-1.17-0.42-2.61,0.52-3.55c0.94-0.94,2.39-1.15,3.55-0.51c1.61,0.88,3.44,1.35,5.29,1.35c6.1,0,11.06-4.96,11.06-11.06
		c0-2.13-0.62-4.21-1.79-6.01c-0.73-1.12-0.63-2.58,0.24-3.59c0.87-1.01,2.3-1.33,3.51-0.78c1.45,0.66,2.98,0.99,4.56,0.99
		c6.09,0,11.05-4.96,11.05-11.06c0-2.44-0.79-4.76-2.29-6.71c-0.81-1.06-0.83-2.53-0.03-3.6c0.79-1.08,2.2-1.5,3.45-1.04
		c1.23,0.45,2.51,0.68,3.78,0.68c6.09,0,11.05-4.96,11.05-11.05c0-2.71-1-5.32-2.82-7.35c-0.89-0.99-1.02-2.45-0.31-3.58
		c0.7-1.13,2.07-1.66,3.35-1.31c1.01,0.28,2.01,0.42,2.99,0.42c6.1,0,11.06-4.96,11.06-11.05c0-3.02-1.21-5.85-3.4-7.96
		c-0.96-0.92-1.19-2.37-0.58-3.55c0.62-1.18,1.94-1.81,3.25-1.55c0.7,0.14,1.42,0.21,2.14,0.21c6.09,0,11.05-4.96,11.05-11.05
		c0-3.31-1.47-6.42-4.02-8.53c-1.03-0.85-1.37-2.27-0.85-3.49c0.52-1.22,1.78-1.96,3.1-1.81c0.49,0.06,0.91,0.08,1.31,0.08
		c6.1,0,11.05-4.96,11.05-11.05c0-3.6-1.77-6.98-4.73-9.06c-1.09-0.77-1.55-2.17-1.12-3.43c0.43-1.26,1.65-2.1,2.98-2.02l0.28,0.02
		c0.06,0,0.12,0.01,0.18,0.01c6.09,0,11.05-4.96,11.05-11.05c0-3.94-2.04-7.5-5.45-9.52c-1.15-0.68-1.71-2.03-1.38-3.33
		c0.33-1.29,1.47-2.21,2.81-2.26c5.99-0.2,10.68-5.05,10.68-11.03c0-4.23-2.37-8.03-6.19-9.91c-1.2-0.59-1.86-1.9-1.63-3.21
		c0.23-1.31,1.3-2.32,2.62-2.46c5.6-0.62,9.82-5.34,9.82-10.98c0-4.54-2.73-8.57-6.96-10.26c-1.24-0.5-2-1.75-1.87-3.07
		c0.13-1.33,1.12-2.41,2.43-2.66c5.2-0.99,8.98-5.55,8.98-10.85c0-4.85-3.11-9.09-7.74-10.55c-1.27-0.4-2.13-1.59-2.1-2.92
		c0.03-1.33,0.93-2.49,2.21-2.83c4.8-1.3,8.16-5.68,8.16-10.66c0-5.17-3.52-9.59-8.56-10.76c-1.3-0.3-2.25-1.42-2.32-2.75
		c-0.08-1.33,0.74-2.55,2-3c4.42-1.56,7.38-5.74,7.38-10.42c0-5.41-4.03-10.1-9.38-10.91c-1.32-0.2-2.35-1.25-2.52-2.57
		c-0.18-1.32,0.54-2.6,1.76-3.14c4.01-1.77,6.6-5.74,6.6-10.11c0-5.74-4.48-10.58-10.21-11.01c-1.33-0.1-2.43-1.06-2.71-2.37
		s0.34-2.63,1.51-3.26c3.59-1.93,5.82-5.67,5.82-9.74c0-6.07-4.92-11.02-10.99-11.05c-1.35,0.06-2.57-0.85-2.95-2.15
		c-0.38-1.28,0.13-2.65,1.25-3.37c3.19-2.05,5.09-5.53,5.09-9.29c0-6.1-4.96-11.05-11.05-11.05c-0.29,0-0.58,0.02-0.87,0.05
		c-1.34,0.11-2.57-0.68-3.04-1.92c-0.47-1.25-0.07-2.66,1-3.46c2.8-2.12,4.41-5.33,4.41-8.81c0-6.1-4.96-11.05-11.05-11.05
		c-0.52,0-1.07,0.05-1.73,0.15c-1.33,0.21-2.61-0.48-3.18-1.69c-0.57-1.21-0.27-2.64,0.73-3.53c2.38-2.1,3.75-5.12,3.75-8.28
		c0-6.09-4.96-11.05-11.05-11.05c-0.82,0-1.68,0.1-2.54,0.31c-1.3,0.31-2.64-0.28-3.3-1.44c-0.66-1.16-0.47-2.61,0.45-3.57
		c2.01-2.08,3.12-4.81,3.12-7.68c0-6.1-4.96-11.05-11.06-11.05c-1.13,0-2.25,0.17-3.33,0.51c-1.26,0.4-2.65-0.08-3.39-1.18
		c-0.74-1.1-0.67-2.56,0.17-3.59c1.63-1.97,2.53-4.47,2.53-7.04c0-6.1-4.96-11.05-11.05-11.05c-1.42,0-2.82,0.27-4.15,0.81
		c-1.24,0.5-2.65,0.13-3.48-0.92s-0.87-2.51-0.1-3.6c1.33-1.88,2.04-4.09,2.04-6.38c0-6.1-4.96-11.05-11.05-11.05
		c-1.71,0-3.37,0.39-4.92,1.17c-1.2,0.6-2.64,0.33-3.54-0.65c-0.91-0.98-1.06-2.44-0.37-3.58c1.04-1.73,1.59-3.69,1.59-5.68
		c0-6.1-4.96-11.06-11.06-11.06c-1.98,0-3.94,0.54-5.66,1.57c-1.15,0.69-2.61,0.53-3.58-0.38c-0.98-0.91-1.24-2.35-0.64-3.54
		c0.78-1.56,1.18-3.22,1.18-4.94c0-6.1-4.96-11.05-11.05-11.05c-2.28,0-4.48,0.7-6.35,2.02c-1.09,0.77-2.55,0.73-3.6-0.1
		c-1.04-0.83-1.41-2.25-0.91-3.48c0.54-1.33,0.82-2.74,0.82-4.17c0-6.1-4.96-11.06-11.05-11.06c-2.56,0-5.05,0.89-7.02,2.52
		c-1.03,0.85-2.49,0.91-3.59,0.17c-1.1-0.75-1.58-2.13-1.17-3.4c0.35-1.09,0.52-2.21,0.52-3.36c0-6.1-4.96-11.05-11.05-11.05
		c-2.87,0-5.59,1.1-7.67,3.11c-0.96,0.93-2.42,1.11-3.57,0.45c-1.16-0.66-1.74-2.01-1.43-3.3c0.21-0.88,0.32-1.74,0.32-2.57
		c0-6.1-4.96-11.06-11.05-11.06c-3.15,0-6.16,1.36-8.26,3.73c-0.89,1-2.32,1.29-3.53,0.72c-1.21-0.57-1.89-1.87-1.68-3.19
		c0.1-0.64,0.15-1.21,0.15-1.75c0-6.1-4.96-11.05-11.05-11.05c-3.47,0-6.68,1.6-8.8,4.39c-0.81,1.06-2.22,1.47-3.47,0.98
		c-1.25-0.48-2.02-1.73-1.91-3.06c0.03-0.29,0.05-0.59,0.05-0.89c0-6.1-4.96-11.05-11.06-11.05c-3.76,0-7.23,1.89-9.28,5.07
		c-0.72,1.12-2.09,1.63-3.37,1.25c-1.28-0.38-2.15-1.55-2.15-2.88c0-0.03,0-0.07,0-0.1c-0.03-6.07-4.98-10.99-11.05-10.99
		c-4.06,0-7.79,2.22-9.73,5.8c-0.63,1.17-1.96,1.78-3.27,1.5c-1.3-0.28-2.26-1.38-2.36-2.71c-0.42-5.74-5.26-10.23-11.01-10.23
		c-4.36,0-8.32,2.58-10.1,6.58c-0.54,1.22-1.81,1.94-3.14,1.76c-1.32-0.18-2.37-1.21-2.56-2.53c-0.8-5.36-5.5-9.41-10.92-9.41
		c-4.66,0-8.84,2.96-10.4,7.36c-0.45,1.26-1.66,2.07-3,1.99c-1.33-0.08-2.45-1.02-2.75-2.33c-1.16-5.05-5.58-8.58-10.77-8.58
		c-4.96,0-9.34,3.34-10.65,8.13c-0.35,1.29-1.51,2.18-2.84,2.21c-1.34,0.01-2.52-0.83-2.92-2.11c-1.45-4.64-5.69-7.76-10.55-7.76
		c-5.29,0-9.85,3.76-10.85,8.95c-0.25,1.31-1.34,2.29-2.66,2.42c-1.33,0.13-2.58-0.64-3.07-1.88c-1.68-4.24-5.71-6.98-10.27-6.98
		c-5.62,0-10.34,4.21-10.98,9.79c-0.15,1.32-1.16,2.39-2.47,2.62c-1.31,0.23-2.62-0.44-3.21-1.64c-1.87-3.83-5.68-6.21-9.92-6.21
		c-5.97,0-10.82,4.68-11.03,10.66c-0.05,1.33-0.97,2.48-2.26,2.8c-1.29,0.33-2.65-0.24-3.32-1.39c-1.98-3.38-5.63-5.48-9.53-5.48
		c-6.09,0-11.05,4.96-11.05,11.05l0.03,0.46c0.05,1.33-0.79,2.53-2.05,2.95c-1.26,0.42-2.65-0.04-3.41-1.13
		c-2.07-2.97-5.46-4.75-9.07-4.75c-6.1,0-11.05,4.96-11.05,11.06c0,0.38,0.03,0.8,0.08,1.28c0.15,1.32-0.59,2.58-1.81,3.1
		c-1.22,0.52-2.64,0.17-3.49-0.86c-2.11-2.57-5.23-4.04-8.54-4.04c-6.1,0-11.05,4.96-11.05,11.05c0,0.69,0.07,1.41,0.21,2.13
		c0.25,1.31-0.38,2.62-1.57,3.24c-1.18,0.61-2.63,0.37-3.55-0.59c-2.11-2.2-4.94-3.42-7.98-3.42c-6.1,0-11.05,4.96-11.05,11.06
		c0,0.97,0.14,1.97,0.42,2.96c0.36,1.28-0.18,2.65-1.31,3.35c-1.13,0.7-2.59,0.57-3.59-0.32c-2.04-1.83-4.66-2.84-7.38-2.84
		c-6.1,0-11.06,4.96-11.06,11.05c0,1.26,0.23,2.53,0.68,3.76c0.46,1.25,0.03,2.66-1.05,3.44c-1.08,0.79-2.54,0.77-3.6-0.04
		c-1.96-1.5-4.28-2.3-6.73-2.3c-6.1,0-11.05,4.96-11.05,11.06c0,1.56,0.33,3.09,0.98,4.53c0.55,1.21,0.23,2.65-0.78,3.51
		c-1.01,0.87-2.47,0.96-3.59,0.23c-1.8-1.18-3.88-1.8-6.03-1.8c-6.1,0-11.06,4.96-11.06,11.05c0,1.84,0.46,3.66,1.33,5.27
		c0.64,1.17,0.43,2.62-0.52,3.56c-0.94,0.94-2.39,1.15-3.56,0.51c-1.61-0.88-3.44-1.35-5.29-1.35c-6.1,0-11.06,4.96-11.06,11.06
		c0,2.13,0.62,4.21,1.79,6.01c0.73,1.12,0.63,2.58-0.24,3.59c-0.87,1.01-2.3,1.33-3.51,0.78c-1.46-0.66-2.99-0.99-4.56-0.99
		c-6.1,0-11.05,4.96-11.05,11.05c0,2.44,0.79,4.76,2.28,6.71c0.81,1.06,0.83,2.53,0.04,3.6c-0.79,1.07-2.19,1.5-3.45,1.04
		c-1.24-0.45-2.52-0.68-3.79-0.68c-6.1,0-11.05,4.96-11.05,11.05c0,2.71,1,5.32,2.83,7.36c0.89,0.99,1.02,2.46,0.31,3.59
		c-0.71,1.13-2.07,1.66-3.36,1.3c-1-0.28-2-0.42-2.99-0.42c-6.1,0-11.05,4.96-11.05,11.05c0,3.02,1.21,5.85,3.4,7.96
		c0.96,0.92,1.2,2.37,0.58,3.55c-0.61,1.18-1.93,1.82-3.24,1.56c-0.72-0.14-1.45-0.21-2.15-0.21c-6.1,0-11.05,4.96-11.05,11.05
		c0,3.31,1.47,6.42,4.02,8.53c1.03,0.85,1.37,2.27,0.85,3.49c-0.52,1.22-1.79,1.96-3.11,1.8c-0.49-0.06-0.92-0.08-1.3-0.08
		c-6.1,0-11.05,4.96-11.05,11.05c0,3.6,1.77,6.98,4.73,9.06c1.09,0.77,1.55,2.16,1.12,3.42c-0.43,1.26-1.65,2.08-2.98,2.03
		l-0.47-0.03c-6.09,0-11.05,4.96-11.05,11.06c0,3.94,2.04,7.5,5.45,9.52c1.15,0.68,1.71,2.03,1.38,3.33s-1.47,2.21-2.81,2.26
		c-5.99,0.2-10.68,5.05-10.68,11.03c0,4.23,2.37,8.03,6.19,9.91c1.2,0.59,1.86,1.9,1.63,3.21s-1.3,2.32-2.62,2.46
		c-5.6,0.62-9.82,5.34-9.82,10.98c0,4.54,2.73,8.57,6.95,10.26c1.24,0.5,2,1.75,1.87,3.07c-0.13,1.33-1.12,2.41-2.43,2.66
		c-5.2,0.99-8.98,5.55-8.98,10.85c0,4.86,3.11,9.09,7.74,10.55c1.27,0.4,2.13,1.59,2.1,2.92c-0.03,1.33-0.93,2.49-2.21,2.84
		c-4.81,1.3-8.16,5.68-8.16,10.66c0,5.17,3.52,9.59,8.56,10.76c1.3,0.3,2.24,1.42,2.32,2.76c0.07,1.33-0.74,2.55-2,3
		c-4.42,1.56-7.38,5.74-7.38,10.42c0,5.4,4.03,10.09,9.38,10.91c1.32,0.2,2.35,1.25,2.52,2.57c0.18,1.32-0.54,2.6-1.76,3.14
		c-4.01,1.77-6.6,5.74-6.6,10.11c0,5.74,4.48,10.58,10.21,11.01c1.33,0.1,2.43,1.06,2.71,2.37c0.28,1.3-0.34,2.63-1.51,3.26
		c-3.59,1.94-5.82,5.67-5.82,9.74c0,6.09,4.96,11.05,11.05,11.05c1.33,0,2.5,0.88,2.88,2.15s-0.13,2.65-1.25,3.37
		c-3.18,2.05-5.09,5.53-5.09,9.29c0,6.1,4.96,11.06,11.05,11.06c0.3,0,0.59-0.02,0.88-0.05c1.33-0.11,2.57,0.68,3.04,1.92
		c0.47,1.25,0.07,2.66-1,3.46c-2.8,2.12-4.41,5.33-4.41,8.81c0,6.1,4.96,11.05,11.05,11.05c0.52,0,1.07-0.05,1.73-0.15
		c1.32-0.2,2.61,0.48,3.18,1.69c0.57,1.21,0.27,2.64-0.73,3.53c-2.38,2.11-3.75,5.12-3.75,8.28c0,6.09,4.96,11.05,11.05,11.05
		c0.82,0,1.68-0.1,2.55-0.31c1.3-0.31,2.64,0.28,3.3,1.44c0.66,1.16,0.47,2.61-0.45,3.57c-2.01,2.08-3.12,4.81-3.12,7.69
		c0,6.09,4.96,11.05,11.05,11.05c1.14,0,2.26-0.17,3.33-0.51c1.27-0.4,2.65,0.08,3.39,1.18c0.74,1.1,0.67,2.56-0.17,3.59
		c-1.65,2-2.53,4.44-2.53,7.04c0,6.09,4.96,11.05,11.05,11.05c1.42,0,2.82-0.27,4.15-0.81c1.23-0.5,2.65-0.13,3.48,0.92
		c0.83,1.04,0.87,2.51,0.1,3.6c-1.33,1.88-2.04,4.08-2.04,6.38c0,6.1,4.96,11.06,11.06,11.06c1.71,0,3.36-0.39,4.92-1.17
		c1.19-0.6,2.64-0.33,3.54,0.65s1.05,2.44,0.37,3.58c-1.04,1.72-1.59,3.69-1.59,5.68c0,6.09,4.96,11.05,11.05,11.05
		c1.98,0,3.94-0.54,5.66-1.57c1.15-0.69,2.6-0.53,3.58,0.37c0.98,0.91,1.24,2.35,0.64,3.54c-0.78,1.56-1.18,3.22-1.18,4.94
		c0,6.1,4.96,11.06,11.05,11.06c2.28,0,4.48-0.7,6.35-2.02c1.09-0.77,2.55-0.72,3.6,0.11c1.04,0.83,1.41,2.25,0.91,3.48
		c-0.54,1.33-0.82,2.73-0.82,4.16c0,6.1,4.96,11.06,11.05,11.06c2.59,0,5.02-0.87,7.02-2.52c1.03-0.85,2.49-0.91,3.59-0.17
		c1.1,0.75,1.58,2.13,1.17,3.4c-0.35,1.09-0.52,2.22-0.52,3.36c0,6.09,4.96,11.05,11.06,11.05c2.87,0,5.59-1.1,7.67-3.1
		c0.96-0.92,2.41-1.11,3.57-0.45c1.16,0.66,1.74,2,1.43,3.3c-0.21,0.88-0.32,1.75-0.32,2.57c0,6.1,4.96,11.06,11.05,11.06
		c3.14,0,6.16-1.36,8.26-3.73c0.89-1,2.32-1.29,3.53-0.72c1.21,0.57,1.89,1.87,1.68,3.18c-0.1,0.66-0.16,1.23-0.16,1.75
		c0,6.1,4.96,11.06,11.06,11.06c3.47,0,6.68-1.6,8.8-4.39c0.81-1.06,2.21-1.46,3.46-0.99c1.24,0.48,2.03,1.71,1.92,3.04
		c-0.02,0.3-0.05,0.6-0.05,0.91c0,6.1,4.96,11.05,11.05,11.05c3.76,0,7.23-1.89,9.28-5.07c0.73-1.13,2.13-1.64,3.42-1.23
		c1.29,0.41,2.15,1.62,2.1,2.97c0,0,0,0.01,0,0.02c0.05,6.05,4.99,10.97,11.05,10.97c4.06,0,7.79-2.22,9.73-5.8
		c0.63-1.17,1.97-1.78,3.27-1.5c1.3,0.28,2.26,1.38,2.36,2.71c0.42,5.74,5.26,10.23,11.01,10.23c4.36,0,8.32-2.58,10.1-6.58
		c0.54-1.22,1.82-1.93,3.14-1.75c1.32,0.18,2.37,1.21,2.56,2.53c0.8,5.36,5.5,9.41,10.92,9.41c4.66,0,8.84-2.96,10.41-7.36
		C476.76,852.75,477.9,851.96,479.16,851.96z"/>
</g>
<g id="_xFF11_顔">
	<path style="fill:#B5B5B5;" d="M442.19,680.5c5.61-2.25,18.26-2.13,30.26-1.03c11.2,1.03,2.7,17.83-2.21,18.63
		C465.34,698.91,442.19,680.5,442.19,680.5z"/>
	<path style="fill:#B5B5B5;" d="M558.05,680.5c-5.61-2.25-18.26-2.13-30.27-1.03c-11.2,1.03-2.7,17.83,2.21,18.63
		C534.91,698.91,558.05,680.5,558.05,680.5z"/>
	<path style="fill:#FEE2CF;" d="M462.79,665.41c-3.79,26.63-10.53,60.61-35.35,70.49c-36.27,14.45,56.31,26.92,71.59,26.89
		c17.14,0.75,107.86-12.43,71.59-26.89c-24.81-9.89-31.56-43.86-35.35-70.49c-18.85,3.49-34.74,5.03-36.24,5.04
		C497.53,670.45,481.65,668.9,462.79,665.41z"/>
	<path style="fill:#E8C5AC;" d="M462.79,665.41c-2.08,14.6-5.04,31.4-11.38,45.23c23.13,29.72,74.63,30.58,95.29,0.07
		c-6.37-13.85-9.34-30.68-11.42-45.31c-18.85,3.49-34.74,5.03-36.24,5.04C497.53,670.45,481.65,668.9,462.79,665.41z"/>
	<path id="顔_2_" style="fill:#F9E7DB;" d="M639,280.86c-42.84-42.35-111.19-44.44-139.96-43.79
		c-28.78-0.66-97.12,1.44-139.96,43.79c-54.24,53.62-59.19,141.66-54.24,180.18c10.32,80.29,15.59,61.1,24.94,107.86
		c8.95,44.73,17.77,46.5,31.79,57.98c13.72,11.22,50.5,28.37,95.39,37.41c21.31,4.29,40.43,6.18,42.08,6.17
		c1.65-0.01,20.77-1.87,42.08-6.17c44.89-9.04,81.67-26.18,95.39-37.41c14.03-11.48,22.85-13.25,31.8-57.98
		c9.35-46.76,14.62-27.57,24.93-107.86C698.18,422.52,693.24,334.47,639,280.86z"/>
	<g>
		<path style="fill:#60524B;" d="M550.77,557c0,0,26.46,10.83,51.23,9.47c28.56-1.57,46.46-17.88,46.46-17.88
			c-2.79,12.74-20.71,26.83-45.79,28.74C580.28,579.04,545.87,565.67,550.77,557z"/>
		<path style="fill:#F2B588;" d="M550.3,544.45c11.5,9.17,43.35,9.47,53.28,6.91C594.91,549.5,554.94,547.8,550.3,544.45z"/>
		<path style="fill:#60524B;" d="M449.23,557c0,0-26.46,10.83-51.23,9.47c-28.56-1.57-46.46-17.88-46.46-17.88
			c2.79,12.74,20.71,26.83,45.79,28.74C419.72,579.04,454.13,565.67,449.23,557z"/>
		<path style="fill:#F2B588;" d="M449.7,544.45c-11.5,9.17-43.35,9.47-53.28,6.91C405.09,549.5,445.06,547.8,449.7,544.45z"/>
		<path style="fill:#A3492E;" d="M492.52,630.81c1.68-1.06,5.66-1.08,7.48-0.98c2.45,0.13,5.14-0.24,7.63,1.01
			c0.48,2.3-0.34,1.99-2.83,2.61c-2.36,0.59-6.23,0.43-9.12,0C492.34,632.96,491.78,632.79,492.52,630.81z"/>
		<path style="fill:#B0797F;" d="M554.44,443.8c0,0,38.56-3.22,47.01-2.65c25.31,1.72,55.65,15.52,55.65,15.52
			s-24.63-15.9-56.27-19.62C593,436.13,555.06,439.44,554.44,443.8z"/>
		<path style="fill:#B0797F;" d="M440.67,443.8c0,0-38.57-3.22-47.02-2.65c-25.31,1.72-55.65,15.52-55.65,15.52
			s24.63-15.9,56.26-19.62C402.1,436.13,440.04,439.44,440.67,443.8z"/>
	</g>
</g>
<g id="_xFF11_ヘアー">
	<g id="XMLID_3_">
		<path style="fill:#A38F79;" d="M809.69,532.32c-12.91,11.59-17.91,32.43-19.72,44.15c-2.25,14.58-0.1,28.28,6.54,41.83
			c3.26,6.67,17.59,20.46,17.59,20.46s-13.19,0.13-33.46-9.37c-13.28-6.22-20.73-18.56-29.75-29.79c0,0-5.98,22.03-12.47,29.96
			c-7.34,8.95-14.88,13.99-25.16,18.43c12.55-14.45,14.08-26.71,16.59-45.12c1.02-7.46-0.47-25.4-10.75-30.86
			c3.78-3.5,6.7-29.47,7.16-34.76c1.3-15.05,4.22-29.98,4.86-45.06c0.65-15.12,1.97-32.89,0.15-47.9
			c-1.23-10.21-8.38-25.57-8.38-35.95c0-8.35,4.53-11.56,12.77-16.22c7.95-4.5,20.11-5.09,28.64-2.62
			c19.33,5.61,26.03,7.11,36.63,24.57c11.84,19.95,17.35,48.22,15.48,70.95c-2.71,32.91,6.52,48.31,24.52,47.84
			C840.92,532.87,821.79,545,809.69,532.32z"/>
	</g>
	<g>
		<path style="fill:#897A66;" d="M731.26,444.3c1.82,15.01,0.49,32.78-0.15,47.9c-0.64,15.09-3.56,30.01-4.86,45.06
			c-0.46,5.3-3.37,31.27-7.16,34.76c10.29,5.46,11.77,23.4,10.75,30.86c-2.51,18.42-4.04,30.67-16.59,45.12
			c10.28-4.44,17.82-9.48,25.16-18.43c6.49-7.93,12.47-29.96,12.47-29.96c9.02,11.23,16.47,23.57,29.75,29.79
			c20.28,9.49,33.46,9.37,33.46,9.37s-0.78-0.75-2.01-1.98c-4.27-1.54-9.75-4.29-16.63-9.11c-5.32-3.73-10.76-11.33-14.65-16.36
			c-11.22-14.5-14.5-41.15-8.88-66.87c5.11-23.41,14.49-51.9,7.95-74.81c-5.4-19.35-31.78-71.62-56.26-66.36
			c-0.48,1.47-0.74,3.13-0.74,5.08C722.87,418.73,730.02,434.1,731.26,444.3z"/>
	</g>
	<g id="XMLID_9_">
		<path style="fill:#A38F79;" d="M190.31,532.32c12.91,11.59,17.91,32.43,19.72,44.15c2.25,14.58,0.1,28.28-6.54,41.83
			c-3.27,6.67-17.59,20.46-17.59,20.46s13.19,0.13,33.47-9.37c13.28-6.22,20.73-18.56,29.75-29.79c0,0,5.98,22.03,12.47,29.96
			c7.34,8.95,14.88,13.99,25.16,18.43c-12.56-14.45-14.08-26.71-16.6-45.12c-1.02-7.46,0.47-25.4,10.75-30.86
			c-3.78-3.5-6.69-29.47-7.15-34.76c-1.3-15.05-4.22-29.98-4.86-45.06c-0.65-15.12-1.97-32.89-0.16-47.9
			c1.23-10.21,8.39-25.57,8.39-35.95c0-8.35-4.53-11.56-12.78-16.22c-7.95-4.5-20.11-5.09-28.64-2.62
			c-19.33,5.61-26.03,7.11-36.63,24.57c-11.84,19.95-17.35,48.22-15.48,70.95c2.71,32.91-6.52,48.31-24.52,47.84
			C159.08,532.87,178.21,545,190.31,532.32z"/>
	</g>
	<g>
		<path style="fill:#897A66;" d="M219.36,629.4c13.28-6.22,20.73-18.56,29.75-29.79c0,0,5.98,22.03,12.47,29.96
			c7.34,8.95,14.88,13.99,25.16,18.43c-12.56-14.45-14.08-26.71-16.6-45.12c-1.02-7.46,0.47-25.4,10.75-30.86
			c-3.78-3.5-6.69-29.47-7.15-34.76c-1.3-15.05-4.22-29.98-4.86-45.06c-0.65-15.12-1.97-32.89-0.16-47.9
			c1.23-10.21,8.39-25.57,8.39-35.95c0-1.95-0.26-3.61-0.74-5.08c-24.48-5.27-50.86,47-56.26,66.36
			c-6.55,22.91,2.84,51.4,7.95,74.81c5.61,25.72,2.34,52.37-8.88,66.87c-3.89,5.03-9.33,12.63-14.65,16.36
			c-6.88,4.82-12.36,7.58-16.63,9.11c-1.23,1.23-2.01,1.98-2.01,1.98S199.08,638.89,219.36,629.4z"/>
	</g>
	<g>
		<g>
			<path style="fill:#403034;" d="M277.19,354.04c-4.21-43.23-9.66-44.72-11.71-45.29c-1.08-0.3-2.32-0.45-3.69-0.45
				c-16.91,0-52.24,22.25-66.27,38.86c-5.05,5.97-7.27,11-6.6,14.94c0.41,2.42,1.66,9.78,43.79,26.62
				c19.8,7.92,41.73,15.03,43.69,15.03l0.57-0.01l0.4-0.31c0.29-0.22,1.12-0.86,2.22-5.28l0.16,0l0.17-1.3
				C280.03,396.14,279.22,374.89,277.19,354.04z"/>
			<path style="fill:#FFFFFF;" d="M276.95,396.32c-0.05-2.54-0.78-22.01-2.8-42.55c-3.71-37.69-8.18-41.77-9.46-42.12
				c-0.82-0.23-1.8-0.34-2.9-0.34c-1.05,0-2.2,0.11-3.44,0.31c5.67,22.38,12.69,67.11,13.14,82.5c0.07,2.28,0.26,4.06,0.55,5.44
				c1.63,0.5,2.88,0.85,3.67,1.05C276.1,399.65,276.61,397.83,276.95,396.32z"/>
			<path style="fill:#FFFFFF;" d="M268.89,394.16c-4.76,0.8-47.31-21.52-75.57-38.58c-1.22,2.36-1.71,4.4-1.44,6.03
				c1.53,9.05,43.34,25.41,67.67,33.83C267.22,394.57,272.23,393.6,268.89,394.16z"/>
		</g>
		<g>
			<path style="fill:#403034;" d="M276.32,407.67c-0.07-0.3-1.7-7.41-9.71-12.53c-2.59-1.65-6.38-2.49-11.28-2.49
				c-24.46,0-78.48,22.65-79.47,36.07c-0.08,1.15-0.34,4.65,10.62,16.45c11.28,12.14,33.08,30.86,38.94,30.86c0.1,0,0.2,0,0.29-0.01
				c18.03-1.64,48.55-60.37,50.58-67.63l0.1-0.36L276.32,407.67z"/>
			<path style="fill:#FFFFFF;" d="M189.72,428.25c8.5-5.66,17.73-10.27,27.06-14.4c8.97-3.97,18.32-7.26,27.86-9.53
				c4.46-1.06,6.99-1.51,11.2-1.64c0.72-0.02,3.75,0.23,3.61,0.15c-0.11-0.02-0.22-0.05-0.33-0.07c0.21,0.03,0.31,0.06,0.33,0.07
				c0.62,0.12,1.23,0.28,1.83,0.47c-0.64-0.46,1.11,0.34,0.01,0c0,0-0.01,0-0.01,0c0.1,0.07,0.25,0.17,0.49,0.31
				c3.33,2,6.53,1.1,8.63-1.01c-1.26-1.63-3-3.38-5.41-4.92c-2.1-1.34-5.35-2.02-9.66-2.02c-26.22,0-75.74,23.34-76.47,33.29
				c-0.07,0.91,0.7,2.76,2.71,5.63c0.03-0.03,0.06-0.06,0.08-0.09C184.58,431.59,186.15,430.63,189.72,428.25z"/>
			<path style="fill:#FFFFFF;" d="M261.61,411.5c0.27-2.71-0.02-0.27-0.21,0.43c-0.31,1.11-0.72,2.19-1.14,3.26
				c-0.06,0.16-0.11,0.27-0.15,0.37c0.03-0.07,0.07-0.14,0.1-0.22c-0.22,0.54-0.25,0.61-0.1,0.22c-0.27,0.63-0.55,1.25-0.84,1.88
				c-0.71,1.56-1.48,3.1-2.25,4.64c-3.65,7.21-7.85,14.15-12.33,20.87c-4.46,6.68-9.34,13.08-14.97,18.82
				c-2.29,2.34-4.22,4.05-6.5,5.59c-0.52,0.35-3.05,1.6-2.86,1.6c0.11-0.04,0.22-0.07,0.33-0.11c-0.2,0.08-0.29,0.11-0.33,0.11
				c-0.45,0.15-0.91,0.28-1.37,0.39c0.42,0.03,0.07,0.12-0.27,0.18c3.21,2.2,5.63,3.51,6.71,3.51l0.02,0
				c15.24-1.39,44.72-55.29,47.85-65.07c-0.18-0.57-0.62-1.82-1.52-3.35C267.59,403.59,262.16,405.88,261.61,411.5z"/>
		</g>
		<path style="fill:#312427;" d="M278.45,391.35c-2.01-2.19-17.28-7.37-22.12,0c-4.84,7.37,9.52,31.64,12.66,29.4
			C272.12,418.52,285.2,398.72,278.45,391.35z"/>
	</g>
	<g>
		<g>
			<path style="fill:#403034;" d="M722.05,354.04c4.21-43.23,9.66-44.72,11.71-45.29c1.08-0.3,2.32-0.45,3.69-0.45
				c16.91,0,52.24,22.25,66.27,38.86c5.05,5.97,7.27,11,6.6,14.94c-0.41,2.42-1.66,9.78-43.79,26.62
				c-19.8,7.92-41.73,15.03-43.69,15.03l-0.57-0.01l-0.4-0.31c-0.29-0.22-1.12-0.86-2.22-5.28l-0.16,0l-0.17-1.3
				C719.21,396.14,720.02,374.89,722.05,354.04z"/>
			<path style="fill:#FFFFFF;" d="M722.29,396.32c0.05-2.54,0.78-22.01,2.8-42.55c3.71-37.69,8.18-41.77,9.46-42.12
				c0.82-0.23,1.8-0.34,2.9-0.34c1.05,0,2.2,0.11,3.44,0.31c-5.67,22.38-12.69,67.11-13.14,82.5c-0.07,2.28-0.26,4.06-0.55,5.44
				c-1.63,0.5-2.88,0.85-3.67,1.05C723.15,399.65,722.63,397.83,722.29,396.32z"/>
			<path style="fill:#FFFFFF;" d="M730.35,394.16c4.76,0.8,47.31-21.52,75.57-38.58c1.22,2.36,1.71,4.4,1.44,6.03
				c-1.53,9.05-43.34,25.41-67.67,33.83C732.03,394.57,727.02,393.6,730.35,394.16z"/>
		</g>
		<g>
			<path style="fill:#403034;" d="M722.92,407.67c0.06-0.3,1.7-7.41,9.71-12.53c2.59-1.65,6.38-2.49,11.28-2.49
				c24.46,0,78.48,22.65,79.47,36.07c0.08,1.15,0.34,4.65-10.62,16.45c-11.28,12.14-33.08,30.86-38.94,30.86c-0.1,0-0.2,0-0.29-0.01
				c-18.03-1.64-48.55-60.37-50.58-67.63l-0.1-0.36L722.92,407.67z"/>
			<path style="fill:#FFFFFF;" d="M809.52,428.25c-8.5-5.66-17.73-10.27-27.06-14.4c-8.97-3.97-18.32-7.26-27.86-9.53
				c-4.46-1.06-6.99-1.51-11.2-1.64c-0.71-0.02-3.74,0.23-3.61,0.15c0.11-0.02,0.22-0.05,0.33-0.07c-0.21,0.03-0.31,0.06-0.33,0.07
				c-0.62,0.12-1.23,0.28-1.83,0.47c0.64-0.46-1.11,0.34-0.01,0c0,0,0.01,0,0.01,0c-0.1,0.07-0.25,0.17-0.49,0.31
				c-3.33,2-6.53,1.1-8.63-1.01c1.26-1.63,3-3.38,5.41-4.92c2.1-1.34,5.35-2.02,9.66-2.02c26.22,0,75.74,23.34,76.47,33.29
				c0.07,0.91-0.7,2.76-2.71,5.63c-0.03-0.03-0.06-0.06-0.08-0.09C814.67,431.59,813.1,430.63,809.52,428.25z"/>
			<path style="fill:#FFFFFF;" d="M737.64,411.5c-0.27-2.71,0.02-0.27,0.21,0.43c0.31,1.11,0.72,2.19,1.14,3.26
				c0.06,0.16,0.11,0.27,0.15,0.37c-0.03-0.07-0.07-0.14-0.1-0.22c0.22,0.54,0.25,0.61,0.1,0.22c0.27,0.63,0.55,1.25,0.84,1.88
				c0.71,1.56,1.48,3.1,2.25,4.64c3.65,7.21,7.85,14.15,12.33,20.87c4.46,6.68,9.34,13.08,14.97,18.82c2.29,2.34,4.22,4.05,6.5,5.59
				c0.52,0.35,3.05,1.6,2.86,1.6c-0.11-0.04-0.22-0.07-0.33-0.11c0.2,0.08,0.29,0.11,0.33,0.11c0.45,0.15,0.91,0.28,1.37,0.39
				c-0.42,0.03-0.07,0.12,0.27,0.18c-3.21,2.2-5.63,3.51-6.71,3.51l-0.02,0c-15.24-1.39-44.72-55.29-47.85-65.07
				c0.18-0.57,0.62-1.82,1.52-3.35C731.65,403.59,737.08,405.88,737.64,411.5z"/>
		</g>
		<path style="fill:#312427;" d="M720.8,391.35c2.01-2.19,17.28-7.37,22.12,0c4.84,7.37-9.52,31.64-12.66,29.4
			C727.12,418.52,714.05,398.72,720.8,391.35z"/>
	</g>
	<path id="XMLID_13_" style="fill:#A38F79;" d="M685.28,312.03c-45.25-69.61-109.42-100.73-186.39-95.42
		c-76.98-5.31-141.14,25.81-186.39,95.42c-38.36,59.01-63.44,146.51-45.36,223.19c18.08,76.68,46.29,117.27,82.92,132.79
		c10.55,4.47,6.86-1.25,6.86-1.25s-10.75-17.46-18.47-61.1c-7.72-43.64-9.31-111.65-7.06-134.69c9.32,0,85.05,2.54,90.82-5.89
		c5.78-8.42,11.03-70.77,18-81.99c1.35,23.38,2.07,81.62,11.19,87.88c10.02,2.38,101.31,5.52,106.44,1.61c2.78-5.48,0-45.85,0-45.85
		c2.79,12.01,8.55,44.24,11.71,45.82c2.53,1.27,34.9-0.61,35.65-1.59c0.94-1.22-8.57-61.38-11.22-78.53
		c7.5,16.61,17.6,76.5,23.2,79.8c5.83,3.44,47.09,2.16,47.09,2.16c0.02,0.15,0.04,0.31,0.06,0.47c0.65-1.4,1.27-2.81,1.79-4.27
		l0.26,0.36c2.25,23.04,0.66,91.05-7.06,134.69c-7.72,43.64-18.47,61.1-18.47,61.1s-3.7,5.72,6.86,1.25
		c36.63-15.52,64.84-56.11,82.92-132.79C748.71,458.54,723.64,371.04,685.28,312.03z"/>
	<path style="fill:#DAD2C5;" d="M706.44,364.63c-6.08-9.35-22.21-26.57-22.21-26.57c-16.83,13.87-26.97,18.65-45.82,26.34
		c-37.68,15.38-234.26,20.89-307.02-16.83c-14.97-7.76-16.39-20.52-16.52-39.08c-0.79,1.18-1.59,2.34-2.37,3.54
		c-17.94,27.59-32.97,61.42-42.04,97.45c-1.57,11.29-1.96,19.97-0.71,23.72c0,0,8.5-30.69,19.84-42.61
		c-4.21,14.26-2.83,36.47-2.83,36.47s0.06-12.79,16.6-32.77c8.68-10.49,25.4-8.38,37.36-7.65c4.56,0.28,45.58,5,95.74,7.52
		c1.2-5.03,2.45-8.95,3.76-11.06c0.18,3.18,0.36,7.01,0.54,11.27c19.95,0.94,41.18,1.51,62.05,1.3
		c63.56-0.64,124.13-5.87,134.18-5.72c25.97,0.4,60.33,12.09,79.97,23.55c0,0,0-8.42-3.71-17.83c5.52,5.27,12.79,20.31,18.15,32.25
		c-6.37-33.5-18.15-65.72-33-93.6C701.82,345.99,705.44,358.63,706.44,364.63z"/>
	<path style="fill:#897A66;" d="M331.39,470.98c2.49-21.14,0-99.1,35.5-144.3c-3.74,17.14-14.65,52.37-16.21,63.28
		c-1.2,8.43-8.42,57.04-10.6,81.02H331.39z"/>
	<path style="fill:#897A66;" d="M661.78,453.28c-2.49-21.14,0-72.04-26.65-115.22c3.74,17.15,12.47,40.68,14.03,51.59
		C650.36,398.07,661.78,453.28,661.78,453.28z"/>
	<path id="XMLID_5_" style="fill:#FFFFFF;" d="M707.41,405.01l-11.63-20.14l-8.26,14.31c-2.19-0.23-4.44-0.36-6.72-0.36
		c-2.96,0-5.85,0.21-8.64,0.59l-8.4-14.55l-12.63,21.89c-9.6,5.95-15.67,14.74-15.67,24.54c0,17.93,20.3,32.47,45.36,32.47
		c25.05,0,45.35-14.54,45.35-32.47C726.15,420.49,718.76,410.92,707.41,405.01z"/>
	<path style="fill:#35200B;" d="M680.8,398.83C680.8,398.83,680.8,398.83,680.8,398.83c-2.96,0-5.85,0.21-8.65,0.59l-8.4-14.55
		l-12.63,21.89c-4.91,3.04-8.89,6.83-11.61,11.11C651.99,419.46,678.92,420.06,680.8,398.83z"/>
	<path style="fill:#35200B;" d="M707.41,405.01l-11.63-20.14l-8.26,14.31c-2.18-0.23-4.41-0.35-6.68-0.36
		c1.88,22.09,29.86,20.54,41.13,18.85C718.69,412.62,713.65,408.26,707.41,405.01z"/>
	<path style="fill:#756657;" d="M710.8,427.64c-1.75,4.15-5.2,7.87-11.61,7.87c-6.41,0-9.74-3.58-11.61-7.87h-3.12
		c2.38,5.22,6.59,9.58,14.73,9.58s12.52-4.53,14.73-9.58H710.8z"/>
	<path style="fill:#756657;" d="M673.94,427.64c-1.75,4.15-5.2,7.87-11.61,7.87c-6.41,0-9.74-3.58-11.61-7.87h-3.12
		c2.38,5.22,6.6,9.58,14.73,9.58c8.13,0,12.51-4.53,14.73-9.58H673.94z"/>
</g>
<g id="_xFF11_服">
	<g>
		<path style="fill:#403034;" d="M669.1,742.43c0.08-0.71,0.11-1.42,0.1-2.12l-0.01-0.53l-0.34-0.41
			c-8.38-9.98-41.02-22.9-64.86-32.34c-7.32-2.9-13.63-5.4-18.37-7.45l-2.1-0.91v1.6c-13.43-6.17-22.49-10.97-30.23-14.8L500,715.18
			l-53.31-29.71c-7.73,3.83-16.8,8.64-30.23,14.8v-1.6l-2.1,0.91c-4.73,2.05-11.05,4.55-18.37,7.45
			c-23.84,9.44-56.48,22.36-64.86,32.34l-0.34,0.41l-0.01,0.53c-0.01,0.7,0.03,1.41,0.1,2.12c-0.68,0.68-1.36,1.38-2.03,2.12
			c-11.4,12.33-20.15,30.34-25.96,48.03c0.67,0.78,0.92,1.86,0.6,2.88c-0.35,1.09-0.52,2.22-0.52,3.36
			c0,6.09,4.96,11.05,11.06,11.05c2.87,0,5.59-1.1,7.67-3.1c0.96-0.92,2.41-1.11,3.57-0.45c1.16,0.66,1.74,2,1.43,3.3
			c-0.21,0.88-0.32,1.75-0.32,2.57c0,6.1,4.96,11.06,11.05,11.06c3.14,0,6.16-1.36,8.26-3.73c0.89-1,2.32-1.29,3.53-0.72
			c1.21,0.57,1.89,1.87,1.68,3.18c-0.1,0.66-0.16,1.23-0.16,1.75c0,6.1,4.96,11.06,11.06,11.06c3.47,0,6.68-1.6,8.8-4.39
			c0.81-1.06,2.21-1.46,3.46-0.99c1.24,0.48,2.03,1.71,1.92,3.04c-0.02,0.3-0.05,0.6-0.05,0.91c0,6.1,4.96,11.05,11.05,11.05
			c3.76,0,7.23-1.89,9.28-5.07c0.73-1.13,2.13-1.64,3.42-1.23c1.29,0.41,2.15,1.62,2.1,2.97c0,0,0,0.01,0,0.02
			c0.05,6.05,4.99,10.97,11.05,10.97c4.06,0,7.79-2.22,9.73-5.8c0.63-1.17,1.97-1.78,3.27-1.5c1.3,0.28,2.26,1.38,2.36,2.71
			c0.42,5.74,5.26,10.23,11.01,10.23c4.36,0,8.32-2.58,10.1-6.58c0.54-1.22,1.82-1.93,3.14-1.75c1.32,0.18,2.37,1.21,2.56,2.53
			c0.8,5.36,5.5,9.41,10.92,9.41c4.66,0,8.84-2.96,10.41-7.36c0.43-1.2,1.56-2,2.83-2c0.06,0,0.12,0,0.18,0
			c1.33,0.08,2.45,1.03,2.75,2.33c1.16,5.05,5.58,8.58,10.76,8.58c4.96,0,9.34-3.34,10.65-8.13c0.35-1.29,1.51-2.18,2.84-2.21
			c0.02,0,0.04,0,0.05,0c1.31,0,2.47,0.85,2.86,2.11c1.45,4.64,5.69,7.76,10.55,7.76c5.29,0,9.85-3.77,10.85-8.95
			c0.25-1.31,1.34-2.29,2.66-2.42c1.33-0.13,2.58,0.64,3.07,1.88c1.69,4.24,5.72,6.98,10.27,6.98c5.62,0,10.34-4.21,10.98-9.8
			c0.15-1.32,1.16-2.39,2.47-2.62c1.31-0.22,2.62,0.44,3.21,1.64c1.87,3.83,5.68,6.21,9.92,6.21c5.97,0,10.82-4.68,11.03-10.66
			c0.05-1.33,0.97-2.47,2.26-2.8c1.29-0.33,2.65,0.24,3.32,1.39c1.99,3.38,5.64,5.48,9.53,5.48c6.09,0,11.05-4.96,11.05-11.05
			l-0.03-0.44c-0.06-1.33,0.78-2.54,2.04-2.97c1.26-0.43,2.66,0.03,3.42,1.13c2.07,2.97,5.46,4.75,9.07,4.75
			c6.1,0,11.05-4.96,11.05-11.06c0-0.39-0.03-0.8-0.08-1.28c-0.15-1.32,0.58-2.58,1.81-3.1c1.23-0.52,2.65-0.17,3.49,0.86
			c2.11,2.57,5.23,4.04,8.55,4.04c6.09,0,11.05-4.96,11.05-11.05c0-0.7-0.07-1.41-0.21-2.13c-0.25-1.31,0.38-2.63,1.56-3.24
			c1.18-0.61,2.63-0.37,3.55,0.59c2.11,2.21,4.94,3.42,7.98,3.42c6.09,0,11.05-4.96,11.05-11.06c0-0.97-0.14-1.96-0.42-2.97
			c-0.35-1.28,0.18-2.65,1.31-3.35c1.13-0.7,2.59-0.57,3.58,0.32c2.04,1.83,4.66,2.84,7.38,2.84c1.2,0,2.36-0.2,3.44-0.56
			c-5.57-20.61-15.37-43.24-28.9-57.87C670.46,743.82,669.78,743.12,669.1,742.43z"/>
		<path style="fill:#AFA13F;" d="M380.23,741.44c-0.08,0.04-0.17,0.08-0.25,0.13c-1.07,0.54-2.14,1.07-3.21,1.61
			c-0.14,0.07-0.29,0.14-0.43,0.22c-1.04,0.52-2.09,1.04-3.12,1.55c-0.14,0.07-0.27,0.13-0.41,0.2c-1.09,0.54-2.18,1.08-3.25,1.61
			c-0.05,0.02-0.09,0.05-0.14,0.07c-1.13,0.56-2.26,1.11-3.36,1.65c-0.02,0.01-0.03,0.02-0.05,0.02
			c-0.34,20.33,1.12,58.49,3.09,83.52c0.54-0.48,1.05-1.01,1.51-1.61c0.81-1.06,2.21-1.46,3.46-0.99c1.24,0.48,2.03,1.71,1.92,3.04
			c-0.02,0.3-0.05,0.6-0.05,0.91c0,5.15,3.54,9.47,8.31,10.7C381.35,820.33,379.11,757.29,380.23,741.44z"/>
		<path style="fill:#2F4B51;" d="M342.58,755.67c3.78-0.3,45.11-21.21,70.88-34.64v-17.8c-4.48,1.89-10.05,4.09-16.36,6.59
			c-23.2,9.18-54.86,21.71-63.31,31.07C333.95,748.09,339.49,755.59,342.58,755.67z"/>
		<path style="fill:#AFA13F;" d="M333.79,740.9c0.16,7.2,5.7,14.69,8.79,14.77c3.78-0.3,45.11-21.21,70.88-34.64v-5.45
			c-18.45,9.52-68.12,34.18-69.56,34.18c-1.2,0-4.49-6.53-6.59-12.01C335.9,738.84,334.71,739.89,333.79,740.9z"/>
		<path style="fill:#AFA13F;" d="M633.99,748.49c-4.53-2.21-9.38-4.62-14.22-7.05c1.01,14.33-0.73,67.29-3.21,94.83
			c2.09,2.43,5.14,3.87,8.37,3.87c1.96,0,3.8-0.52,5.39-1.42C632.58,814.35,634.36,770.74,633.99,748.49z"/>
		<path style="fill:#2F4B51;" d="M602.89,709.83c-6.31-2.5-11.89-4.7-16.36-6.59v17.8c25.77,13.42,67.1,34.33,70.88,34.64
			c3.09-0.08,8.63-7.58,8.79-14.77C657.75,731.54,626.09,719.01,602.89,709.83z"/>
		<path style="fill:#AFA13F;" d="M657.42,755.67c3.09-0.08,8.63-7.58,8.79-14.77c-0.91-1.01-2.11-2.06-3.52-3.13
			c-2.1,5.48-5.39,12.01-6.59,12.01c-1.44,0-51.12-24.67-69.56-34.18v5.45C612.3,734.46,653.63,755.37,657.42,755.67z"/>
		<circle style="fill:#281F22;" cx="410.39" cy="776.19" r="13.09"/>
		<circle style="fill:#AFA13F;" cx="408.35" cy="774.32" r="13.09"/>
		<circle style="fill:#281F22;" cx="413.32" cy="829.81" r="13.09"/>
		<circle style="fill:#AFA13F;" cx="410.39" cy="827.62" r="13.09"/>
		<path style="fill:#281F22;" d="M578.55,831.05c0-7.23,5.86-13.1,13.09-13.1c7.23,0,13.09,5.86,13.09,13.1
			c0,7.23-5.86,13.09-13.09,13.09C584.42,844.14,578.55,838.28,578.55,831.05z"/>
		<circle style="fill:#281F22;" cx="592.91" cy="777.53" r="13.09"/>
		<circle style="fill:#AFA13F;" cx="591.65" cy="774.32" r="13.09"/>
		<circle style="fill:#AFA13F;" cx="589.61" cy="827.62" r="13.09"/>
		<path style="fill:#FFFFFF;" d="M500,713.53l57.85-33.04c0,0,61.85,31.8,21.25,59.85C536.41,769.84,492.83,722.26,500,713.53z"/>
		<path style="fill:#FFFFFF;" d="M500,713.53l-57.85-33.04c0,0-61.85,31.8-21.25,59.85C463.59,769.84,507.17,722.26,500,713.53z"/>
		<g>
			<path style="fill:#802921;" d="M504.29,758.48c-1.66,3.38,7.84,67.82,11.94,68.57c4.11,0.75,28.54-6.15,33.96-11.62
				c4.95-5.01,24.07-4.97,25.37-7.65c1.48-3.04-35.38-46.65-41.79-50.91C525.87,751.61,505.41,756.2,504.29,758.48z"/>
			<path style="fill:#9F342A;" d="M507.96,759.57c3.01,6.29,58.46,55.48,69.66,38.31c11.19-17.17,6.96-36.52,6.22-41.02
				c-0.75-4.5,13.43-23.16,5.22-35.1c-8.21-11.94-61.69-4.97-77.37,4.98c-0.98,0.62-1.86,1.28-2.64,1.98
				C497.29,739.09,506.59,756.7,507.96,759.57z"/>
			<path style="fill:#802921;" d="M513.17,740.48c7.23-0.69,31.27,0,31.27,6.76c0,8.85-7.54,12.91-10.86,13.57
				c-4.35,0.87-25.86-9.09-24.38-15.4C509.98,742.09,513.17,740.48,513.17,740.48z"/>
			<path style="fill:#802921;" d="M495.71,758.48c1.66,3.38-7.84,67.82-11.94,68.57c-4.1,0.75-28.54-6.15-33.96-11.62
				c-4.95-5.01-24.07-4.97-25.38-7.65c-1.48-3.04,35.39-46.65,41.79-50.91C474.13,751.61,494.59,756.2,495.71,758.48z"/>
			<path style="fill:#9F342A;" d="M492.04,759.57c-3.01,6.29-58.46,55.48-69.66,38.31c-11.19-17.17-6.97-36.52-6.22-41.02
				c0.75-4.5-13.44-23.16-5.23-35.1c8.21-11.94,61.7-4.97,77.37,4.98c0.98,0.62,1.86,1.28,2.64,1.98
				C502.71,739.09,493.41,756.7,492.04,759.57z"/>
			<path style="fill:#802921;" d="M486.83,740.48c-7.23-0.69-31.28,0-31.28,6.76c0,8.85,7.54,12.91,10.86,13.57
				c4.35,0.87,25.86-9.09,24.38-15.4C490.02,742.09,486.83,740.48,486.83,740.48z"/>
			<path style="fill:#BC665E;" d="M510.57,731.21c-3.26-2.74-7.39-3.08-10.57-3.08c-3.18,0-7.31,0.34-10.57,3.08
				c-3.98,3.35-3.77,26.55,1.99,29.35c4.38,2.14,8.58,2.14,8.58,2.14s4.2,0,8.58-2.14C514.34,757.76,514.55,734.56,510.57,731.21z"
				/>
		</g>
	</g>
</g>
</svg>
